<?xml version="1.0" encoding="utf-8"?>
<!-- Generator: Adobe Illustrator 22.0.1, SVG Export Plug-In . SVG Version: 6.00 Build 0)  -->
<svg version="1.1" id="Livello_1" xmlns="http://www.w3.org/2000/svg" xmlns:xlink="http://www.w3.org/1999/xlink" x="0px" y="0px"
	 width="199px" height="58px" viewBox="0 0 199 58" style="enable-background:new 0 0 199 58;" xml:space="preserve">
<style type="text/css">
	.st0{fill:#FFFFFF;}
</style>
<g>
	<path class="st0" d="M194.1697388,41.9053268c0,0.8297119,0.6763306,1.50354,1.5136108,1.50354
		c0.8272095,0,1.5010376-0.6738281,1.5010376-1.50354c0-0.8359985-0.6738281-1.5073242-1.5010376-1.5073242
		C194.8460693,40.3980026,194.1697388,41.0693283,194.1697388,41.9053268z"/>
	<path class="st0" d="M79.2688599,48.4656296c-0.6134644-0.2438965-0.8912964-0.5003662-2.3746948-0.7694092
		c-0.9428711-0.1709595-1.612915-0.21875-1.8907471-0.4324341c-0.2791138-0.2036743-0.4437866-0.168457-0.4437866-0.4525757
		c0-0.2991943,0.1697388-0.5644531,0.5003662-0.7919922c0.3293457-0.2225342,0.7781372-0.3369141,1.3363037-0.3369141
		c0.5167236,0,1.3011475,0.1043091,1.604126,0.3129883c0.3004761,0.2011719,0.4777222,0.5079346,0.5405884,0.925293h2.3307495
		v-2.7720337h-1.9837646v0.6939697c-0.350769-0.2904053-0.7040405-0.487793-1.0748901-0.6084595
		c-0.5166626-0.1760254-1.1427612-0.2627563-1.8781738-0.2627563c-1.3954468,0-2.5142822,0.2954712-3.3464966,0.8887939
		c-0.8334961,0.5895996-1.2508545,1.3036499-1.2508545,2.1422119c0,0.5179443,0.1608887,0.9893799,0.4840088,1.4092407
		c0.3218384,0.4186401,0.7467041,0.7391968,1.2659302,0.9629517c0.5179443,0.2225342,1.3312988,0.4563599,2.428772,0.6914673
		c1.4243774,0.3129883,1.50354,0.53302,1.7801514,0.6750488c0.3984985,0.1923828,0.5895996,0.4840088,0.5895996,0.8800049
		c0,0.3570557-0.1697388,0.6499634-0.5078735,0.8837891c-0.3432007,0.2262573-0.8397827,0.4362183-1.4696045,0.3406982
		c-0.2074585-0.0314331-0.9542236-0.3042603-0.9542236-0.3042603c-0.3733521-0.241333-1.0119629-0.6650391-1.116333-1.1641235
		h-2.4853516v2.9957886h2.0981445v-0.8737183c0.4437866,0.3432007,1.1993408,0.605957,1.736145,0.7869873
		c0.5343018,0.182251,1.1980591,0.2677612,1.9837646,0.2677612c1.4356689,0,1.8027344-0.305481,2.6651611-0.9177246
		c0.8598633-0.6109619,1.2910767-1.3602295,1.2910767-2.2452393c0-0.5556641-0.0930176-1.4771729-0.4299316-1.9071045
		C80.3638916,49.0564499,79.8848877,48.7183151,79.2688599,48.4656296z"/>
	<path class="st0" d="M123.6207886,44.1442795h-4.5194702v2.1773682h1.3577271v3.4345703
		c0-0.2501831,0.0552979,1.6116333-0.0741577,1.8517456c-0.7279053,1.3237915-1.8002319,0.4186401-1.8002319,0.4186401
		c-0.4475708-0.4186401-0.4085693-1.4331665-0.4085693-2.2188721v-5.6634521h-4.5081177v2.1773682h1.4545288v4.187561
		c0,0.7102661,0.1608887,1.3740845,0.4802246,1.9875488c0.3192749,0.6172485,0.6121826,1.2194214,1.2973633,1.5953369
		c0.6838989,0.3758545,0.8586426,0.4525757,1.6518555,0.4525757c0.6864014,0,0.5745239-0.1282349,1.1930542-0.3884888
		c0.6260376-0.2601929,1.1364746-0.6398926,1.5374756-1.1364746v1.3476562h3.4935913v-2.1810913h-1.1552734V44.1442795z"/>
	<polygon class="st0" points="157.2557373,52.188652 154.5817871,52.188652 159.1980591,46.2825851 159.1980591,44.1467209 
		150.6142578,44.1467209 150.6142578,47.5221481 152.8532104,47.5221481 152.8532104,46.2825851 155.2593994,46.2825851 
		150.3389282,52.480278 150.3389282,54.3672409 159.5060425,54.3672409 159.5060425,51.0408859 157.2557373,51.0408859 	"/>
	<path class="st0" d="M189.6733398,48.0208054c0-0.5782471-0.0415039-1.0195312-0.1081543-1.3162231
		c-0.0930176-0.4173584-0.2727661-0.824646-0.5317383-1.2319946c-0.2514648-0.4085693-0.6612549-0.7605591-1.2119141-1.0584717
		c-0.5493774-0.3017578-1.1389771-0.4525757-1.7650146-0.4525757c-0.6361084,0-1.1879883,0.1407471-1.6694946,0.4274292
		c-0.473938,0.2828369-0.8649292,0.7077637-1.1779175,1.2709351v-1.5161133h-3.5011597v2.1773682h1.2697144v5.864563h-1.2697144
		v2.1824341h5.0247803v-2.1824341h-0.7454834V49.047905c0-0.9880981,0.1911011-1.7021484,0.5745239-2.1320801
		c0,0,0.7542725-0.8222046,1.5425415-0.0314331c0.3947144,0.3922119,0.5618896,1.0195312,0.5618896,1.8265991v3.4747314h-0.7706299
		v2.1824341h5.0524902v-2.1824341h-1.2747192V48.0208054z"/>
	<path class="st0" d="M164.7286987,43.433403c0.8309937,0,1.5060425-0.6751099,1.5060425-1.5073242
		s-0.6750488-1.5023193-1.5060425-1.5023193c-0.8359985,0-1.5085449,0.670105-1.5085449,1.5023193
		S163.8927002,43.433403,164.7286987,43.433403z"/>
	<polygon class="st0" points="166.1964111,44.1436691 161.8718262,44.1436691 161.8718262,46.3210373 163.2572021,46.3210373 
		163.2572021,52.1856003 161.8718262,52.1856003 161.8718262,54.3680344 167.3014526,54.3680344 167.3014526,52.1856003 
		166.1964111,52.1856003 	"/>
	<polygon class="st0" points="197.2737427,52.1856003 197.2737427,44.1436691 192.9567261,44.1436691 192.9567261,46.3210373 
		194.3370361,46.3210373 194.3370361,52.1856003 193.0547485,52.1856003 193.0547485,54.3680344 198.4906616,54.3680344 
		198.4906616,52.1856003 	"/>
	<path class="st0" d="M131.0722046,45.9089279V44.13134h-4.574707v2.2251587h1.7411499v5.8469849h-1.2144165v2.1785889h5.4811401
		v-2.1785889h-1.2106323v-2.06427c0-0.8988037,0.3218384-1.6053467,0.97052-2.1282959
		c0.6499634-0.5204468,1.5915527-0.8134155,2.8336182-0.8787842V44.13134
		c-1.0786743,0.1030884-1.9158936,0.2941895-2.5117798,0.569519
		C131.9899292,44.9811935,131.4845581,45.3784103,131.0722046,45.9089279z"/>
	<path class="st0" d="M64.1806641,42.0855026h1.9812622v-2.1698608h-3.0297241h-5.9902954v2.1698608h1.9812622
		l-3.6142578,10.1074219h-1.640564v2.1748657h6.2266235v-2.1748657H58.621582l1.006958-2.552002h3.8720093l1.0383911,2.552002
		h-1.5513306v2.1748657h6.4504395v-2.1748657h-1.6305542L64.1806641,42.0855026z M60.1980591,47.6118698l1.4595337-4.6903687
		l1.430603,4.6903687H60.1980591z"/>
	<path class="st0" d="M91.2008057,48.4753952c-0.6172485-0.2463989-0.8925781-0.5040894-2.3810425-0.7693481
		c-0.934021-0.1734619-1.6104126-0.2200317-1.8907471-0.4324341c-0.2715454-0.2099609-0.4387207-0.1710205-0.4387207-0.4538574
		c0-0.3016968,0.1671753-0.5631714,0.5015869-0.7932739c0.3319092-0.2275391,0.7744141-0.3406982,1.3325806-0.3406982
		c0.5192261,0,1.3024292,0.1056519,1.6053467,0.3118286c0.2992554,0.2061157,0.4815063,0.5179443,0.5456543,0.9290161h2.3218994
		V44.160881H90.821167v0.6876831c-0.350769-0.2854004-0.7115479-0.4890137-1.0773926-0.6097412
		c-0.5166626-0.1709595-1.1401978-0.2614746-1.8768921-0.2614746c-1.3967285,0-2.5105591,0.2966919-3.3477783,0.8837891
		c-0.8322144,0.5908203-1.2533569,1.3036499-1.2533569,2.1434326c0,0.5254517,0.1646729,0.9918823,0.4865112,1.4092407
		c0.3218384,0.4198608,0.7467041,0.7454834,1.2671509,0.9667358c0.5154419,0.2237549,1.3300781,0.4550781,2.4275513,0.692688
		c1.4293823,0.3092651,1.5048218,0.5343018,1.7826538,0.6700439c0.3934937,0.1973877,0.5883179,0.4890747,0.5883179,0.8812866
		c0,0.3620605-0.1709595,0.6511841-0.5116577,0.8850098c-0.3369141,0.232605-0.8347168,0.4412842-1.467041,0.3457031
		c-0.2074585-0.0288696-0.9554443-0.3104858-0.9554443-0.3104858c-0.3696289-0.2388916-1.0132446-0.6600342-1.1138306-1.1603394
		h-2.4841309v2.9995117h2.0944214v-0.8825073c0.4487915,0.3482666,1.1955566,0.6135254,1.7335815,0.7932739
		c0.5405884,0.1797485,1.203064,0.2664795,1.9888306,0.2664795c1.4293213,0,1.8002319-0.305481,2.6663818-0.9176636
		c0.8573608-0.6135254,1.2860718-1.3640137,1.2860718-2.2490234c0-0.5531616-0.0905151-1.4746704-0.4237061-1.9033203
		C92.2907715,49.0612106,91.8117676,48.7230759,91.2008057,48.4753952z"/>
	<path class="st0" d="M173.479187,43.8021164c-0.8510742,0-1.6682129,0.241394-2.4313354,0.7165527
		c-0.7693481,0.473938-1.3652344,1.1439819-1.7977295,1.9988403c-0.4299316,0.8548584-0.6448975,1.7537231-0.6448975,2.6928101
		c0,0.9365845,0.2149658,1.8253784,0.6448975,2.6853027c0.4412842,0.8535767,1.0333862,1.5198364,1.8052979,1.9975586
		c0.7668457,0.4777222,1.5726929,0.715332,2.4174805,0.715332c0.8422852,0,1.6556396-0.2426147,2.4338379-0.7341919
		c0.7794189-0.4902954,1.3778076-1.1641235,1.7976685-2.0177002c0.4174194-0.8573608,0.6235962-1.7537231,0.6235962-2.6877441
		c0-1.4834595-0.4677124-2.7493896-1.4268799-3.7953491C175.9481812,44.3275681,174.8092041,43.8021164,173.479187,43.8021164z
		 M173.3898926,51.8264694c-0.9088745,0-1.649353-1.166626-1.649353-2.6047974c0-1.4369507,0.7404785-2.5997925,1.649353-2.5997925
		c0.9076538,0,1.6431274,1.1628418,1.6431274,2.5997925C175.03302,50.6598434,174.2975464,51.8264694,173.3898926,51.8264694z"/>
	<path class="st0" d="M109.1835938,50.9008102c-0.4337158,0.605957-1.0911865,0.9893799-1.8278809,0.9893799
		c-1.2897949,0-2.3370361-1.1766968-2.3370361-2.6387329c0-1.4570312,1.0472412-2.6350098,2.3370361-2.6350098
		c0.7115479,0,1.3501587,0.3570557,1.7801514,0.925293v0.022644h2.2930298v-3.4169312h-1.8304443v0.9981689
		c-0.3771362-0.4349976-0.802063-0.7567749-1.2558594-0.9680176c-0.4563599-0.2161865-0.9453735-0.3218384-1.4783936-0.3218384
		c-0.7970581,0-1.5827637,0.2388916-2.3521118,0.7178345c-0.7706299,0.4815063-1.3728027,1.1515503-1.809021,2.0001221
		c-0.4337158,0.8510742-0.6461792,1.7449341-0.6461792,2.6777344c0,0.9390869,0.2124634,1.8404541,0.656189,2.6902466
		c0.4375,0.852356,1.0598145,1.5223999,1.8605957,1.9989014c0.802063,0.4789429,1.6229858,0.7203369,2.4677734,0.7203369
		c1.0610352,0,2.0302734-0.3394165,2.9064941-1.0145264c0.8699341-0.6801147,1.4846802-1.5789795,1.8341675-2.7141724h-2.5985107
		V50.9008102z"/>
	<path class="st0" d="M146.6271362,51.6721725c-0.0817261-0.2752686-0.0654297,0.4664307-0.0654297-0.8347168
		c0-0.4224243-0.0238647-0.8937988,0-1.5550537c0.0377197-0.9893799,0.0427856-1.6896362,0.0427856-1.9234619
		c0-0.5493774-0.0540771-1.0057373-0.1495972-1.3627319c-0.1030884-0.3633423-0.2904053-0.7014771-0.5581665-1.0158081
		c-0.2678223-0.3117676-0.6838989-0.5858154-1.2496338-0.8171387c-0.5631714-0.2312622-1.2810059-0.3482056-2.1572266-0.3482056
		c-0.5280151,0-1.0170288-0.0779419-1.3125,0c-0.2174683,0.059082-1.1112671,0.1671753-1.649353,0.4387207
		c-0.5380249,0.2703247-1.1239014,0.7970581-1.6003418,1.3514404l2.2339478,0.3406982
		c0.3079834-0.0779419,0.6260376-0.4224243,0.9743042-0.4224243c0.8460083,0,1.2722168,0.0176392,1.6908569,0.4727173
		c0.4060669,0.4563599,0.4362183,1.2043457,0.4362183,1.2043457c-1.2144165-0.0955811-2.1811523-0.3582764-3.4470825,0.0515137
		c-0.3193359,0.1005859-1.2458496,0.6499634-1.6946411,0.9680176c-0.2526855,0.1785278-0.5053711,0.7781982-0.7266235,1.1590576
		c-0.2212524,0.3796997-0.2526855,2.0252686-0.1445923,2.6048584c0.1911011,0.9767456,0.524231,1.4796143,1.0183105,1.9472656
		c0.4927979,0.4689331,0.8724365,0.6776123,1.7423706,0.6776123c0.328125,0,1.3502197,0.0779419,1.6959229-0.0515137
		c1.6053467-0.5770264,1.1439819-0.6021729,1.8467407-1.0095215l-0.0352173,0.7555542l0.1030884,0.12323
		c0.633606-0.036499,1.2835693-0.0553589,1.9598999-0.0553589c0.7090454,0,1.5286865,0.0188599,2.4526978,0.0553589v-2.3408203
		c-0.6826782-0.0402222-1.0861816-0.0917969-1.2182007-0.1495972
		C146.7201538,51.8909225,146.6610718,51.7991867,146.6271362,51.6721725z M143.237854,51.1806564
		c-0.1671753,0.2363281-0.7379761,0.4512939-1.0308838,0.6008911c-0.2853394,0.1546631-0.5770264,0.2313232-0.8623657,0.2313232
		c-0.3432007,0-0.6185303-0.1080933-0.8297119-0.3092651c-0.2036743-0.2036133-0.3042603-0.4940186-0.3042603-0.8661499
		c0-0.3381958,0.0666504-0.7969971,0.2401123-1.0245972c0.168457-0.2124023,0.5707397-0.5229492,1.0145264-0.6725464
		c0.4563599-0.1508789,1.2307739,0.0100708,1.772583-0.09552V51.1806564z"/>
	<polygon class="st0" points="99.3236084,44.1436691 94.9977417,44.1436691 94.9977417,46.3210373 96.381897,46.3210373 
		96.381897,52.1856003 94.9977417,52.1856003 94.9977417,54.3680344 100.4311523,54.3680344 100.4311523,52.1856003 
		99.3236084,52.1856003 	"/>
	<path class="st0" d="M99.1104736,41.955986c0-0.8007812-0.6511841-1.4507446-1.4507446-1.4507446
		c-0.8082886,0-1.4544678,0.6499634-1.4544678,1.4507446s0.6461792,1.4482422,1.4544678,1.4482422
		C98.4592896,43.4042282,99.1104736,42.7567673,99.1104736,41.955986z"/>
	<polygon class="st0" points="65.0025635,29.2812424 72.5203247,7.2900324 75.5009766,7.2900324 75.5009766,3.1464777 
		63.4789429,3.1464777 63.4789429,7.2900324 65.9944458,7.2900324 61.7050781,22.3870773 57.8330688,7.2900324 
		59.9589233,7.2900324 59.9589233,3.1464777 47.7432861,3.1464777 47.7432861,7.2900324 50.9338989,7.2900324 58.046814,29.2812424 
			"/>
	<path class="st0" d="M103.3544922,25.3160934h-0.2791138c-0.5279541,0-0.7467041-0.2263184-1.3740234-0.6776123
		c-0.6273193-0.4538574-0.9403687-1.1075439-0.9403687-1.9736938v-9.1570425h2.5935059V9.6533136h-2.5935059V4.292901
		l-5.8909302,3.1428223v2.2175903h-2.5306396v3.8544312h2.5306396v10.6341543c0,1.4595337,0.5795288,2.7028809,1.7260132,3.750061
		c1.1566162,1.0421753,2.5419922,1.5664062,4.164917,1.5664062h2.5935059V25.3160934z"/>
	<path class="st0" d="M152.1812744,13.0685968V9.6680231h-8.7270508v4.2579346h3.326355v11.1672354h-2.3218994v4.1636353h10.4569092
		v-4.1636353h-2.3106689v-3.9411621c0-1.7172241,0.6173096-3.0749512,1.8543091-4.0668335
		c1.2307739-0.9969482,3.0322266-1.5538321,5.4069824-1.6820669V9.6680231
		c-2.0541992,0.2036743-3.654541,0.569519-4.7935181,1.0975342
		C153.9262085,11.2947931,152.9632568,12.0603571,152.1812744,13.0685968z"/>
	<path class="st0" d="M179.8058472,28.4222336c0.9378662,0.8988647,1.6644897,1.2960815,3.3289185,1.2960815
		c0.6298218,0,2.5784302,0.145874,3.2396851-0.09552c3.0535889-1.1075439,2.1748657-1.1540527,3.5124512-1.9397583
		l-0.0653687,1.4456787l0.1986084,0.2388916c1.2081299-0.0716553,2.4539795-0.1055908,3.7425537-0.1055908
		c1.3551636,0,2.9165649,0.0339355,4.6715088,0.1055908v-4.4641113c-1.2973633-0.0830078-2.0629883-0.182312-2.3106079-0.2941895
		c-0.1860962-0.0842285-0.3092651-0.2514038-0.3620605-0.5040894c-0.059021-0.1954346-0.0820312-0.1404419-0.0877075-0.1148682
		c0.0067139-0.050354,0.0324097-0.3466797,0.0324097-1.5772705c0-0.7995605-0.0465698-1.4520264,0-2.7128906
		c0.0565186-1.4671021,0-2.9668579,0-3.836791c0-1.0484619-0.0905151-1.9146729-0.2841187-2.6035767
		c-0.1873169-0.6851196-0.5455933-1.3275146-1.0547485-1.9347534c-0.5154419-0.5983887-1.3036499-1.116333-2.3810425-1.5588379
		c-1.0823975-0.4400024-2.4552002-0.6650391-4.1196289-0.6650391c-1.0245972,0-1.9284668-0.0666504-2.5092773-0.0012207
		c-1.130188,0.1332397-2.0579224,0.3180542-3.1453857,0.8359985c-1.0408936,0.4877319-2.1434326,1.5249023-3.0548706,2.5846558
		l4.2579346,0.6486816c0.6813965-0.5128784,1.40802-0.8108521,1.859314-0.8121338
		c1.6254883-0.0025024,2.4275513,0.0377197,3.2233276,0.9026489c0.7857056,0.8699341,0.8372803,2.3143921,0.8372803,2.3143921
		c-2.3106079-0.182251-4.1209106-0.5808105-6.5698242,0.0905151c-1.3690186,0.3721304-2.4702759,1.1339712-3.2396851,1.8480215
		c-0.4337158,0.3997803-0.9642334,1.2344971-1.3828125,2.2200928c-0.3381958,0.7719116-0.487793,3.8544312-0.2652588,4.9719849
		C178.2294312,26.5729904,178.8642578,27.5258713,179.8058472,28.4222336z M183.9695435,20.5676193
		c0.3268433-0.4237061,1.0786133-1.0095215,1.9397583-1.2961426c0.8624268-0.2853394,2.3370361,0.0163574,3.3817139-0.1772461
		v4.0819092c-0.3205566,0.4425659-1.4042358,0.852356-1.9649048,1.1402588
		c-0.5543823,0.2966919-1.1088257,0.4425049-1.6519165,0.4425049c-0.6511841,0-1.1766968-0.2011108-1.5776978-0.5933838
		c-0.3922119-0.3884277-0.5908813-0.9440918-0.5908813-1.6581421
		C183.5056152,21.8687668,183.6414185,20.9849777,183.9695435,20.5676193z"/>
	<polygon class="st0" points="89.3674927,25.093071 87.2492065,25.093071 87.2492065,9.7269831 79.0010986,9.7269831 
		79.0010986,13.8906794 81.6398315,13.8906794 81.6398315,25.093071 79.0010986,25.093071 79.0010986,29.2567062 
		89.3674927,29.2567062 	"/>
	<path class="st0" d="M84.461792,8.1872492c1.5889893,0,2.875061-1.2897949,2.875061-2.875061
		c0-1.5915527-1.2860718-2.880127-2.875061-2.880127c-1.5890503,0-2.880127,1.2885742-2.880127,2.880127
		C81.581665,6.8974543,82.8727417,8.1872492,84.461792,8.1872492z"/>
	<path class="st0" d="M139.3566895,24.7342453c0.7957764-1.6329956,1.1980591-3.3414307,1.1980591-5.1240845
		c0-2.8336182-0.911438-5.2548819-2.7280273-7.2537222c-1.8190918-1.9963379-3.9926758-2.9995117-6.5308228-2.9995117
		c-1.6317749,0-3.1818237,0.4575806-4.6439209,1.3652344c-1.4658203,0.9126587-2.6123657,2.1849365-3.4320068,3.8192139
		c-0.824646,1.6354971-1.2332153,3.3515005-1.2332153,5.1442251c0,1.7825928,0.4122925,3.4923096,1.2432861,5.1278687
		c0.824707,1.6342773,1.9711914,2.9052734,3.4382935,3.8129272c1.4620361,0.911438,2.9995117,1.3690186,4.6087036,1.3690186
		c1.6091309,0,3.1629639-0.4701538,4.6488647-1.4029541C137.4118652,27.6558762,138.5584106,26.3723068,139.3566895,24.7342453z
		 M131.1135864,24.676445c-1.7310791,0-3.1378174-2.2263794-3.1378174-4.9719849
		c0-2.7443848,1.4067383-4.9657583,3.1378174-4.9657583s3.1403198,2.2213736,3.1403198,4.9657583
		C134.2539062,22.4500656,132.8446655,24.676445,131.1135864,24.676445z"/>
	<path class="st0" d="M108.8214111,24.1418991c0,1.4595337,0.5745239,2.7028809,1.7285767,3.750061
		c1.1465454,1.0421753,2.5394287,1.5664062,4.1636963,1.5664062h2.5909424v-4.1422729h-0.2803345
		c-0.5292969,0-0.742981-0.2263184-1.371582-0.6776123c-0.62854-0.4538574-0.9390259-1.1075439-0.9390259-1.9736938v-9.1570425
		h2.5909424V9.6533136h-2.5909424V4.292901l-5.8922729,3.1428223v2.2175903h-2.5306396v3.8544312h2.5306396V24.1418991z"/>
	<polygon class="st0" points="174.9735107,25.1248703 172.8552246,25.1248703 172.8552246,9.7613459 164.6083984,9.7613459 
		164.6083984,13.9211969 167.2521973,13.9211969 167.2521973,25.1248703 164.6083984,25.1248703 164.6083984,29.2860031 
		174.9735107,29.2860031 	"/>
	<path class="st0" d="M169.3324585,7.9477472c1.53125,0,2.7733154-1.2344971,2.7733154-2.765686
		c0-1.5274048-1.2420654-2.7745361-2.7733154-2.7745361c-1.5336914,0-2.7732544,1.2471313-2.7732544,2.7745361
		C166.5592041,6.7132502,167.7987671,7.9477472,169.3324585,7.9477472z"/>
	<path class="st0" d="M23.1223755,0.0004816c-12.8831787,0-23.1226196,12.8831787-23.1226196,28.7596436
		c0,15.8789062,10.3901978,28.7331543,23.2695923,28.7332764l0.0001221,0.0025024
		c12.8756714-0.0263672,23.1817017-12.8756714,23.1817017-28.7357788
		C46.4511719,12.8836603,36.0030518,0.0004816,23.1223755,0.0004816z M23.229248,56.6297531
		C10.8011475,56.5053024,0.9024048,44.0797043,0.9024048,28.7651901c0-15.3849478,9.9992676-27.8608398,22.3268433-27.8608398
		c12.3312988,0,22.3293457,12.4758911,22.3293457,27.8608398C45.5585938,44.153862,35.5605469,56.6297531,23.229248,56.6297531z"/>
	<polygon class="st0" points="28.6343384,51.6791306 29.4414062,51.3208542 28.5664062,50.3364792 	"/>
	<path class="st0" d="M32.090332,6.6675959c0.2564697-0.5229492-0.0087891-0.6901245-0.0087891-0.6901245
		c-0.2476807-0.2061768-0.8586426-0.5003662-0.8586426-0.5003662s-0.2702637,0.4953003-0.5845947,1.0560303
		c0.1420898,0.0905151,0.7756958,0.4877319,0.9743042,0.473938C31.9143066,6.9932184,32.090332,6.6675959,32.090332,6.6675959z"/>
	<path class="st0" d="M24.7647095,6.5927057c0.3469849,0.0276489,0.5078735-0.0930176,0.729126-0.3796387
		c0.2162476-0.2879028,0.2526855-0.765625,0.2929077-1.3062134c0.0490723-0.5405884,0.0490723-0.9453735-0.1206665-1.2596436
		c-0.1722412-0.3243408-0.241394-0.4487915-0.583313-0.4815063C24.725708,3.13305,24.5648193,3.2612848,24.3498535,3.5491266
		c-0.2200317,0.2828979-0.2966919,0.715332-0.3419189,1.2609253c-0.0477905,0.5418701-0.0339966,0.9516602,0.131958,1.2684937
		C24.3058472,6.372674,24.4529419,6.5499811,24.7647095,6.5927057z"/>
	<path class="st0" d="M24.4307861,51.044487c-0.31427-0.0628052-0.9968872-0.022583-0.9968872-0.022583l0.0125732,1.2131348
		c0.277832,0.0037842,0.9051514,0.0440063,1.0698242-0.0553589c0.2576904-0.1596069,0.2576904-0.5342407,0.2576904-0.5342407
		C24.7400513,51.0684128,24.4307861,51.044487,24.4307861,51.044487z"/>
	<polygon class="st0" points="6.2194824,31.6361008 4.9334106,31.2853928 5.0390015,32.1490402 	"/>
	<path class="st0" d="M23.243042,1.6072321c-11.8800049,0-21.5134888,12.1515503-21.5134888,27.1392212
		c0,14.8443604,9.5895386,26.9129028,21.4996948,27.1366577c11.8875122,0,21.5323486-12.1489868,21.5323486-27.1366577
		S35.1293335,1.6072321,23.243042,1.6072321z M27.9372559,7.2316828l0.1080933,0.0465088
		c0.1873169,0.0742188,0.3457031,0.1156616,0.4462891,0.1156616c0.0565796,0,0.0880127-0.0137939,0.1105957-0.0188599
		c0.02771-0.0175781,0.1282349-0.0917358,0.3319092-0.4613647l0.7869873-1.4658203
		c0.2124634-0.3859253,0.2124634-0.5128784,0.2073975-0.5393066c-0.0125732-0.0766602-0.09552-0.1558838-0.2401123-0.2426147
		l-0.1043091-0.0653687l0.3632812-0.6826172l0.1081543,0.0527954c0.7404175,0.3230591,1.4633179,0.7077637,2.1685791,1.1351929
		c0.277771,0.1546021,0.9679565,0.5619507,1.2055664,1.0094604c0.1898193,0.3532715,0.182312,0.729126-0.0289307,1.1125488
		c-0.2664795,0.5028687-0.6411133,0.6110229-0.9088745,0.6110229c-0.0339355,0-0.0603638-0.0025635-0.0980835-0.0025635
		c0.1169434,0.2891846,0.0112915,0.6436768-0.09552,0.8435669l-0.3105469,0.5506592
		c-0.0314331,0.036438-0.0892334,0.1105957-0.0263672,0.1571045h0.0137939c0.0452881,0,0.086731-0.0415039,0.1018677-0.0615845
		l0.2891235-0.4538574l0.473938,0.3369141l-0.0440063,0.1005859c-0.1357422,0.291687-0.3218384,0.5230103-0.3344116,0.5280151
		c-0.2275391,0.1998901-0.4877319,0.2966919-0.7630615,0.2966919l-0.0565796-0.0037842
		c-0.6373901-0.022644-1.1201172-0.5480957-1.1239014-1.2219238c-0.0025024-0.2866211,0.1118774-0.4249268,0.1370239-0.4487915
		c0,0,0.1056519-0.1986694,0.3406982-0.597168c0.059082-0.1005859,0.0792236-0.1873169,0.059082-0.2426147
		c-0.0238647-0.0490723-0.0779419-0.0666504-0.0779419-0.0666504l-0.5606689-0.3331299
		c-0.1571655,0.2941895-0.4387207,0.8397827-0.4638672,0.9252319c0.0100098,0.0239258,0.1105957,0.1081543,0.4525757,0.3658447
		l0.0930176,0.0666504l-0.3759155,0.7115479l-0.1181641-0.0704346c-0.6473999-0.4186401-1.4281006-0.8850098-2.3118896-1.2282104
		l-0.1408081-0.0565796L27.9372559,7.2316828z M26.5877075,22.5575485c-0.022644,0.0980225-0.0767212,0.1721802-0.159668,0.2262573
		c0.0339355,0.0075684,0.277832,0.1131592,0.3079834,0.2023926c0.0490112,0.1495972-0.8560791,0.53302-0.8775024,0.3721313
		c-0.0112915-0.0779419,0.3897705-0.2200317,0.2703247-0.2866211c-0.1408081-0.0804443-0.277832,0.1005859-0.4186401-0.013855
		c-0.1621704-0.1382446,0.291687-0.5091553,0.3356323-0.5732422c0.0125732-0.0163574,0.3620605-0.2702637,0.3067627-0.1030884
		c-0.0477905,0.0515747-0.0905151,0.1106567-0.1118774,0.182312C26.3098755,22.66436,26.503479,22.3965988,26.5877075,22.5575485z
		 M26.8617554,23.8372726l0.2601929,0.6147461c0.0565796,0.2212524-0.081665,0.1395874-0.081665,0.1395874
		c-0.3344116-0.196106-0.692688-0.5205078-0.692688-0.5205078c-0.168457-0.3243408,0.1043091-0.3758545,0.2878418-0.3758545
		C26.7485962,23.7002487,26.8617554,23.8372726,26.8617554,23.8372726z M25.7026367,24.6506882
		c-0.2966309,0.1621704-0.642395-0.7329102-0.7140503-0.8787842c-0.0251465-0.0351562-0.0716553-0.0552979-0.0628662-0.1005249
		c0.1584473,0.0653687,0.1986694,0.2212524,0.3105469,0.3432007C25.3129272,24.0962448,26.029541,24.4658737,25.7026367,24.6506882z
		 M25.7768555,22.0974045c-0.1798096-0.0854492-0.5179443-0.5958862-0.5179443-0.5958862s-0.0993042-0.0968018-0.1470947-0.109375
		c0,0-0.6348877-0.3557739-0.2652588,0.2703247c0,0,0.0678711,0.1495972,0.3155518,0.4688721
		c0.1671753,0.1697388,0.2451172,0.3683472,0.2828369,0.5380859c0.0552979,0.3733521-0.4274292,0.4840088-0.4274292,0.4840088
		c-0.2816162,0.0791626-0.4714355-0.0942993-0.5795288-0.2086792c-0.1860962-0.2891846-0.1735229-0.5230103-0.1735229-0.5230103
		c-0.0075073-0.7329102-0.519165-1.3149414-0.6310425-1.4620361c-0.4639282-0.8070679,0-2.0202637,0-2.0202637
		c0.0075073-0.1030884-0.0515747-0.0628052-0.0515747-0.0628052c-0.1080933,0.0427246-0.1558838,0.109314-0.1558838,0.109314
		c-0.0163574,0-0.1659546,0.1056519-0.2526855,0.1182251c-0.1671753,0.0414429-0.2866211,0.0100098-0.3683472-0.0264282
		c-0.09552-0.0603638-0.1370239-0.241394-0.1370239-0.241394s-0.2727661-0.31427-0.3155518-0.6851196
		c0,0-0.0603027-0.1936035,0.0037842-0.4349976v-0.0703735c0.0188599,0.0314331,0.0390015,0.050293,0.0390015,0.050293
		c0.1005249,0.109375,0.255188,0.0829468,0.255188,0.0829468s0.0075073,0.0653687-0.109375,0.3130493
		c0,0-0.1043701,0.1131592,0.0100708,0.159668c0.0753784,0.0301514,0.1998901,0.0854492,0.3607788,0.0880127
		c0.2023926,0,0.1043701-0.0880127,0.1043701-0.0880127c-0.1131592,0.0050049-0.2426758-0.0540771-0.2992554-0.0880127
		c-0.0339355-0.0050049,0-0.0666504,0-0.0666504c0.0917969-0.1671753,0.1207275-0.3997192,0.1207275-0.3997192
		c0.0427246-0.3168335-0.3934937-0.2803955-0.3934937-0.2803955c-0.0251465,0-0.0653687,0.0302124-0.0641479,0.0113525
		c0-0.0150757,0.0088501-0.0565796,0.0088501-0.0565796c0.1282349-0.3331299,0.6172485-0.5040894,0.6172485-0.5040894
		c0.21875,0.1470337,0.5820312,0.2275391,0.5820312,0.2275391c0.3079834,0.1055908,0.3294067,0.4122925,0.2966919,0.4764404
		c-0.0628662,0.2652588,0.0716553,0.5053711,0.0716553,0.5053711c0.3117676,0.0025024,0.1080933,0.21875,0.1080933,0.21875
		c-0.241333,0.159668-0.241333,0.4035034-0.241333,0.4035034c0.0037842,0.1571655-0.0980835,1.0358887-0.0980835,1.0358887
		s-0.0804443,0.3771362,0.3909912,0.6876831c0,0,0.1106567,0.1294556,0.569458,0.159668
		c0,0,0.1659546-0.0176392,0.3294067,0.0188599c0.0917358,0,0.2212524,0.0377197,0.3708496,0.1797485
		c0,0,0.1495972,0.196106,0.182312,0.5154419c-0.0125732,0.2237549,0.3117676,0.6901855,0.3117676,0.6901855
		C25.9628906,22.2671432,25.7768555,22.0974045,25.7768555,22.0974045z M26.3249512,31.5247116
		c0.2979126,0.2816162,0.6499634,0.5179443,0.97052,0.7794189c0.2438965,0.2036743,0.4651489,0.4262085,0.6876221,0.6537476
		c0.1131592,0.1168823,0.2577515,0.2149658,0.3394775,0.3595581c0.2715454,0.4651489,0.3657837,1.1100464,0.3192749,1.6455688
		c-0.0200806,0.159668-0.0050049,0.3909912-0.0880127,0.5343018c-0.0402222,0.0741577-0.1206665,0.1307373-0.1709595,0.1998901
		c-0.2426147,0.0615845-0.2740479-0.0565796-0.3582764-0.2489014c-0.072937-0.1760254-0.168457-0.2866821-0.2061768-0.4752197
		c-0.0552979-0.2652588-0.1420288-0.5229492-0.1470947-0.7957764c-0.0025024-0.5921021-0.4425049-1.1414795-0.4425049-1.1414795
		c-0.1408081-0.1697388-0.2979126-0.3319092-0.4450073-0.5003662c-0.1747437-0.1973267-0.4299316-0.437439-0.5317993-0.6901855
		c-0.0452271-0.1130981-0.3544922-0.4550781-0.3544922-0.4550781c-0.2564697-0.3180542,0-0.3657837,0-0.3657837
		C26.1288452,31.103569,26.1564941,31.3751144,26.3249512,31.5247116z M26.4758301,30.4888229
		c0.1520996,0.2514648,0.3884277,0.4224243,0.62854,0.583313c0.4224243,0.2791138,0.8661499,0.5267334,1.2747192,0.8297119
		c0.350769,0.2577515,0.6676025,0.5594482,0.9680176,0.875c0.3130493,0.3306274,0.642395,0.6813354,0.8485718,1.0836792
		c0.1144409,0.2262573,0.2011719,0.5355225-0.0804443,0.6700439c-0.1986084,0.0980225-0.4990845,0.0615845-0.6751099-0.0603638
		c-0.3557739-0.2388306-0.3243408-0.8712158-0.4814453-1.2332764c-0.387207-0.8623657-1.7801514-1.7913818-2.5042725-2.3495483
		C26.3413086,30.7025681,26.1765747,30.4888229,26.4758301,30.4888229z M26.7687378,34.5230026
		c-0.2225342-0.1470947-0.4639282-0.2451172-0.692688-0.378418c-0.305481-0.1709595-0.5895996-0.3758545-0.8737183-0.583313
		c-0.2061768-0.1546021,0.1030884-0.1420288,0.1030884-0.1420288c0.1810303,0.0314331,0.350708,0.1219482,0.5154419,0.2149658
		c0.4412231,0.2463989,0.8937988,0.4978027,1.2960815,0.7970581c0.3268433,0.241333,0.5480957,0.5493164,0.6801147,0.9290161
		c0.1106567,0.3079834,0.2137451,0.7442017,0.0829468,1.0584717c-0.0829468,0.1973877-0.2614746,0.2577515-0.4261475,0.1182251
		c-0.1898193-0.159668-0.2677612-0.4639282-0.2828369-0.7027588c-0.0239258-0.2476807,0.0766602-0.4802246,0.0665894-0.7241211
		C27.2288208,34.8360519,26.9749146,34.6613083,26.7687378,34.5230026z M26.2243652,36.9027634
		c0.0477905,0.2426758-0.4638672,0.2678223-0.5983887,0.2828979c-0.2728271,0.0301514-0.5594482,0.2212524-0.8347168,0.1696777
		c-0.159668-0.0276489-0.4488525-0.059082-0.5154419-0.2313232c-0.0377197-0.0842285-0.0314331-0.1898193,0-0.2878418
		l-0.0691528,0.1206665c0.0201416-0.0427246,0.0452271-0.0855103,0.0691528-0.1231689
		c0.0289307-0.0767212,0.0615845-0.1470947,0.1080933-0.1986694c0.1332397-0.2501831,0.2828369-0.4953003,0.4790039-0.6939087
		c0.255188-0.2489624,0.5430908-0.2489624,0.8787231-0.1647339c0.1898193,0.0427856,1.3840942,0.5808105,0.874939,0.8272095
		c-0.2388306,0.1131592-0.692688-0.1130981-0.8145752,0.1835327C25.9213867,36.777092,26.1942139,36.7305832,26.2243652,36.9027634z
		 M22.9118042,36.4678268c0.182312-0.1571655,0.0427246,0.4625854,0.0427246,0.4625854
		c-0.109375,0.072937-0.1269531-0.0665894-0.1269531-0.0665894c-0.1257324,0.036438-0.1005859-0.1332397-0.1005859-0.1332397
		C22.652832,36.6626511,22.9118042,36.4678268,22.9118042,36.4678268z M23.1519165,37.1454391
		c0,0,0.072937-0.1533813,0.086731,0.0188599c0,0,0.1270142,0.5141602,0.2438965,0.7165527
		c0,0,0.2753296,1.0258179-0.2576904,1.0961914c0,0-0.072937,0.2301025-0.2175293,0.1081543
		c0,0-0.0905151,0.2161865-0.2262573,0.0402222c0,0-0.1383057,0.3092651-0.2526855,0.0791626
		c0,0-0.1295166,0.1835938-0.1948853,0.1685181c-0.3582764-0.0717163-0.1055908-0.241394,0.0653687-0.3960571
		c0,0,0.4727173-0.6775513,0.5217285-0.9767456C22.9205933,38.0002975,23.0626831,37.2120285,23.1519165,37.1454391z
		 M22.49823,39.9991379c0.2891235-0.3708496,0.6914062,0.0490112,0.6914062,0.0490112
		c0.0792236,0.1609497,0.2124634,0.0804443,0.2124634,0.0804443c0.2388306-0.2098999,0.4337158-0.2451172,0.4337158-0.2451172
		c0.5154419-0.1244507,0.583313,0.4349365,0.583313,0.4349365c0.086731,0.3759155-0.3130493,0.5820923-0.3130493,0.5820923
		c-0.4512939,0.1621704-0.7039795-0.2263184-0.7039795-0.2263184c-0.0804443-0.1621704-0.4173584-0.1105957-0.4173584-0.1105957
		c-0.1798096,0.159668-0.3909912,0.0200806-0.3909912,0.0200806C22.2869873,40.3372726,22.49823,39.9991379,22.49823,39.9991379z
		 M23.5957031,33.4745407c0.0703735,0.9001465-0.0390015,1.4595337-0.0390015,1.4595337
		c-0.1055908,1.3287964-0.3092651,0.5317993-0.3092651,0.5317993c-0.0326538-0.7744141-0.0326538-0.9642334-0.0326538-0.9642334
		c-0.2765503-0.9089355-0.487793-1.3237915-0.487793-1.3237915c-0.0665894-0.4085693-0.1206665-0.7115479-0.086731-0.9000854
		c0,0,0.0766602-0.4714355-0.1659546-0.0188599c-0.0716553,0.1307373-0.1181641,0.2664795-0.1382446,0.3884277
		c0,0,0.0050049,0.496582-0.21875,0.0792236c-0.2966919-0.4123535-0.2966919-0.7832031-0.2966919-0.7832031l-0.4890137-1.1515503
		c-0.3822021-1.18927-0.1383057-1.3589478-0.1383057-1.3589478c0.2790527-0.1043701,0.5883179,0.0352173,0.5883179,0.0352173
		c0.4927979,0.2426147,0.5280151,1.0094604,0.5280151,1.0094604c0.1722412,0.8372803,0.3432007,0.1420288,0.3432007,0.1420288
		c0.0352173-0.5946045,0.1433105-1.2219238,0.1433105-1.2219238c0.4186401-0.3494873,1.079895-0.241394,1.079895-0.241394
		c1.0094604,0.4136353,1.7059326,1.3891602,1.7059326,1.3891602c0.2111816,0.4890137-0.1759644,0.31427-0.1759644,0.31427
		c-0.3834839-0.3821411-0.9755859-0.5568848-0.9755859-0.5568848c-0.7266235-0.3809204-0.3444214,0.6951904-0.3444214,0.6951904
		c0.4500122,0.1395264,0.7304077,0.4198608,0.7304077,0.4198608c0.1018066,0.2451782-0.4902954,0.2087402-0.4902954,0.2087402
		c-0.3469849-0.1747437-0.5870972,0.0703735-0.5870972,0.0703735c-0.1055908,0.3117676,0.2401123,0.4865112,0.2401123,0.4865112
		c0.5179443,0.0666504,0.8309937,0.4689331,1.0170288,0.7216187c0.0791626,0.1131592-0.0653687,0.0968018-0.0653687,0.0968018
		c-0.0892944-0.0716553-0.1508789-0.12323-0.1508789-0.12323c-0.2438965-0.3117676-0.5581665-0.3117676-0.5581665-0.3117676
		c-0.6260376-0.2438965-0.2790527,0.3482666-0.2790527,0.3482666c0.196106,0.1596069,0.4173584,0.3067017,0.5669556,0.4500122
		c0.1433105,0.1395874-0.0440063,0.1244507-0.0440063,0.1244507c-0.1608887-0.0703735-0.3117676-0.1571045-0.3117676-0.1571045
		C23.3505249,32.9503098,23.5957031,33.4745407,23.5957031,33.4745407z M21.8746338,32.7164841
		c0.0075684,0.1986694-0.059082,0.059082-0.2136841,0.1295166c-0.1571655,0.0691528-0.1571655,0.21875-0.3658447,0.1973267
		c-0.0100708-0.0980225-0.0188599-0.3432007,0.1408081-0.3067017c0.1709595-0.0716553,0.0427246-0.132019,0.182312-0.2288208
		C21.7602539,32.4072189,21.8671265,32.5668869,21.8746338,32.7164841z M26.4758301,35.1968307
		c-0.2941895-0.2539062-0.5129395-0.5782471-0.8197021-0.8158569c-0.2828369-0.2112427-0.5870361-0.1345215-0.6599731-0.5041504
		c0.4613647,0.2589722,0.9177246,0.5192261,1.3577271,0.8134155c0.1759644,0.1130981,0.4412231,0.3343506,0.4412231,0.5719604
		C26.7926025,35.4834518,26.562561,35.268486,26.4758301,35.1968307z M27.1194458,33.9510422
		c-0.1747437,0.0351562-0.3129883-0.2602539-0.4047852-0.3608398c-0.2627563-0.2866211-0.6386108-0.5368042-0.9830933-0.7140503
		c-0.1546021-0.0792236-0.4286499-0.1030884-0.4827271-0.2753296c-0.0930176-0.2966919,0.1520996-0.6851196,0.2601929-0.9503784
		l0.0968018,0.2111816C26.0621948,32.5580978,27.1470947,33.0232468,27.1194458,33.9510422z M25.5581055,28.8734055
		c-0.4375,0.1709595-0.7932739,0.022644-0.7932739,0.022644c-0.1936035,0.2313232-0.6461792-0.0716553-0.6461792-0.0716553
		c-0.4814453-0.4714355-0.7781372-0.1118774-0.7781372-0.1118774c-0.305481,0.2350464-0.4927979,0.1395264-0.4927979,0.1395264
		c-0.2602539-0.0615845-0.3620605-0.0942993-0.6260986-0.0440063c-0.0188599,0.0062866-0.036438,0.013855-0.0527954,0.0163574
		c-0.2765503,0.1068726-0.5405884-0.0477905-0.5405884-0.0477905c-0.6624756-0.0527954-0.6373291-0.2262573-0.6373291-0.2262573
		c-0.2212524,0.2601929-0.4387817-0.2338257-0.4387817-0.2338257c0.2175293-0.1672363,0.3017578-0.3180542,0.3017578-0.3180542
		c-0.2074585-2.2276611,1.1364136-3.4382935,1.1364136-3.4382935l0.0980835,0.277832
		c-0.9466553,1.1427002-0.6675415,1.7398682-0.6675415,1.7398682c0.132019-0.4072876,0.838501-1.6694946,0.838501-1.6694946
		l-0.3884277,0.8586426c-0.2514648,0.5682373-0.305481,1.5136108-0.305481,1.5136108
		c0.0377197,0.4840088-0.0100708,0.6838379-0.0100708,0.6838379c0.2564697-0.2514038,0.2727661-0.9302368,0.2727661-0.9302368
		c-0.0162964-0.8309937,0.605957-1.4457397,0.605957-1.4457397c0.4777222-0.4915161,0.5255127-0.9768066,0.5255127-0.9768066
		c0.3494873,0.3432007,0.1030884,1.1779785,0.1030884,1.1779785c-0.0603638,0.8598633,0.5355225,1.5563354,0.5355225,1.5563354
		c0.2677612,0.305481,0.3205566,0.6184692,0.3205566,0.6184692c0.0892944-0.4274292-0.204895-1.4406738-0.204895-1.4406738
		c0.4198608,0.6072388,0.4978027,1.28479,0.4978027,1.28479C24.09729,28.3680344,24.31604,28.5503464,24.31604,28.5503464
		c0.0854492-0.109375,0.2099609-0.1873169,0.2489014-0.3294067c0.0968018-0.328125-0.0289307-0.7794189-0.0829468-1.102478
		c-0.0691528-0.4211426-0.1571655-0.8473511-0.3042603-1.2546387c-0.0565796-0.1470947-0.159668-0.3319092-0.1357422-0.4902954
		c0.0640869-0.3997803,0.3884277,0.4312134,0.4349365,0.5116577c0.0792236,0.1357422,0.2023926,0.2162476,0.2979736,0.3369141
		c0.1571045,0.2111816,0.2023926,0.5179443,0.2476196,0.7744141c0.0842285,0.4902954,0.1018677,1.0132446,0.2476807,1.494751
		l0.3356323,0.1646729C25.605835,28.6559372,25.7466431,28.8004684,25.5581055,28.8734055z M17.2509155,18.8087082
		c0,0,1.3803101,0.241394,1.977478-0.1005249C19.2283936,18.7081833,18.3584595,19.7616501,17.2509155,18.8087082z
		 M18.0215454,20.3927536c0,0-0.2992554,0.2438354-1.1540527,0.1206665c0,0-0.6537476,0-1.0233154,0.0565796
		c0,0-0.3570557-0.0075684-0.1182251-0.1257324c0,0,0.8372803-0.1495972,1.2974243-0.3092651
		c0,0,0.5795288-0.2589722,0.9818115-0.0440063C18.005188,20.0909958,18.1912231,20.2506638,18.0215454,20.3927536z
		 M16.3432617,15.8280573c0,0-0.8397827,0.6310415-1.8530273-0.3406982
		C14.4902344,15.487359,15.1992188,15.9260798,16.3432617,15.8280573z M14.1055298,14.6378107
		c0.0043335-0.0057373,0.0087891-0.0112915,0.0131226-0.0169678c0.1860352,0.0955811,0.7975464,0.3880615,1.3772583,0.4164429
		C15.4959106,15.0372858,14.8502808,15.4796686,14.1055298,14.6378107z M19.6030273,17.9840622
		c0,0-0.5205078,0.5204468-1.0598145-0.0905151C18.5432129,17.8935471,18.9014893,18.1097336,19.6030273,17.9840622z
		 M17.7009277,17.023613c0,0,0.5531616,0.2639771,1.0044556,0.1382446
		C18.7053833,17.1618576,18.319458,17.711235,17.7009277,17.023613z M20.6640625,18.8514938
		c0,0-0.5305176,0.642395-1.203125,0.0615845C19.4609375,18.9130783,20.3032227,19.060173,20.6640625,18.8514938z
		 M20.2102051,18.1173019c0,0-0.6587524-0.3067627-0.8862915-1.06604c0,0-0.1923218-0.4324951-2.1434326-1.7260733
		c0,0,3.0586548,1.3677969,3.4785156,2.4992056C20.6589966,17.8243942,20.7080078,18.2794724,20.2102051,18.1173019z
		 M17.7323608,16.2932053c0,0-0.4512939,0.3796387-1.0094604-0.2112427
		C16.7229004,16.0819626,17.1113281,16.3497849,17.7323608,16.2932053z M15.8227539,15.1856623
		c0,0,0.5091553,0.255188,0.9793091,0.2740479C16.802063,15.4597101,16.3482666,15.742547,15.8227539,15.1856623z
		 M17.4344482,16.8186569c0,0-0.7668457,0.9026489-2.0189819-0.2237549
		C15.4154663,16.594902,16.5343018,17.0286179,17.4344482,16.8186569z M18.164856,17.8243942
		c0,0-0.8963623,0.8548584-1.8215942-0.1433105C16.3432617,17.6810837,16.9542236,18.030571,18.164856,17.8243942z
		 M18.7833252,20.0646286c0,0,0.1936035,0.0314331,1.0610352-0.0352173c0,0,0.3067627,0,0.9127197-0.1156616
		c0,0,0.7492676-0.3293457,1.0761108,0.0301514c0,0,0.159668,0.2338257,0.0703735,0.5958862
		c-0.0917358,0.2854004-0.255188,0.3520508-0.255188,0.3520508c-0.1760254,0.0879517-0.4173584-0.1182251-0.4173584-0.1182251
		s-0.328125-0.3582764-1.0006714-0.1847534c0,0-1.0748901,0.1018066-1.4055176-0.2677612
		c0,0-0.0213623-0.0113525-0.0905151-0.0905151C18.734314,20.2305832,18.6802368,20.1048508,18.7833252,20.0646286z
		 M21.4057617,21.6649704c0,0,0.0440063,1.1980591,0.4072876,1.2520752c0,0-0.1709595,0.3947754-0.072876,0.6663208
		C21.7401733,23.5833664,21.2385254,23.1144333,21.4057617,21.6649704z M22.4956665,20.0646286
		c0,0,0.1445923,0.5568848,0.5506592,1.3250122c0.1269531,0.2376099,0.2275391,0.4550781,0.2941895,0.6185303
		c0.1571045,0.3469849,0.0050049,0.6386108,0.0050049,0.6386108c-0.1307373,0.2325439-0.3155518,0.2879028-0.3155518,0.2879028
		c-0.6273193,0.1621704-0.9063721-0.3042603-0.9063721-0.3042603s-0.1609497-0.3117676,0.036438-0.7416992
		c0.072937-0.1420288,0.1760254-0.2489014,0.1760254-0.2489014C22.4466553,21.4914474,22.6088257,21.0942307,22.4956665,20.0646286z
		 M23.8999023,23.9454269c0.21875-0.2501831,0.1659546-0.1370239,0.1659546-0.1370239
		c0.0087891,0.159668,0.109375,0.3293457,0.050293,0.473938c0.1408081,0.0289307,0.1898193,0.1495972,0.159668,0.2803345
		c-0.2011719,0.0188599-0.6348877,0.2099609-1.2294922-0.1055908l0.0415039-0.2388916
		c-0.0352173-0.3746338,0.3457031-0.5179443,0.3532104-0.9378052h0.0930786
		c0.0842285,0.1810303,0.0665894,0.3444824,0.1068115,0.5455933C23.6849365,24.0220871,23.8999023,23.9454269,23.8999023,23.9454269
		z M23.8118896,22.1288376c0.3997803,0.5845947,0.3218384,1.5299683,0.3218384,1.5299683
		C23.4737549,22.2394943,23.8118896,22.1288376,23.8118896,22.1288376z M22.7018433,24.3854294
		c0,0-0.2815552,0.2438965-0.6210327-0.1621704c0,0,0.3269043-1.4356689,0.4048462-1.1100464
		C22.4856567,23.1132126,22.8916626,23.6588058,22.7018433,24.3854294z M24.5247192,18.4416428
		c0,0-0.0427246,0.1885986-0.0855103,0.4613647c0,0-0.2011108,0.6147461-0.2539062,0.7794189
		c-0.0880127-0.2451172-0.0993042-0.5393066-0.0666504-0.7994995C24.133728,18.5245895,24.4379883,18.5220871,24.5247192,18.4416428
		z M27.8586426,15.4597101c-0.6021729,0.7467031-0.9629517,0.4035034-0.9629517,0.4035034
		C27.451355,15.7852716,27.8586426,15.4597101,27.8586426,15.4597101z M27.4337769,14.9053278
		c0.5618896-0.1710205,1.020752-0.5368042,1.020752-0.5368042C27.8850708,15.1391535,27.4337769,14.9053278,27.4337769,14.9053278z
		 M27.3155518,16.4943161c-0.5015869,0.6549683-0.8887939,0.3557739-0.8887939,0.3557739
		C26.9006958,16.8211594,27.3155518,16.4943161,27.3155518,16.4943161z M26.2796631,16.7004929
		c0,0-0.2174683,0.4337158-0.1898193,0.9655151c0,0,0.1722412,0.4337158,0.1131592,0.6939087
		c0,0-0.0264282,0.605957-0.2275391,0.4840088c0,0-1.06604-0.5129395-0.5506592-1.4193115
		c0,0,0.6952515-1.6669912,1.8543091-2.6903067C27.2791138,14.7343073,26.758667,15.6545343,26.2796631,16.7004929z
		 M25.6272583,19.4876022c0.0829468,0.62854,0.6889038,0.5946045,0.6889038,0.5946045
		C25.3682861,20.4832687,25.6272583,19.4876022,25.6272583,19.4876022z M26.0106812,19.1141891
		c0,0,0.0012207,0.4035645,0.6121826,0.4525757C26.6228638,19.5667648,25.979248,20.0168381,26.0106812,19.1141891z
		 M26.4292603,18.2028122c0.569519-0.0050659,1.1276855-0.2602539,1.1276855-0.2602539
		C26.90448,18.7031174,26.4292603,18.2028122,26.4292603,18.2028122z M26.7196655,17.3856125
		c0.6625366-0.1546021,1.2420654-0.5430298,1.2420654-0.5430298C27.4299927,17.7464523,26.7196655,17.3856125,26.7196655,17.3856125
		z M27.524292,16.4226608c0.824646-0.1420288,1.4381714-0.6624746,1.4381714-0.6624746
		C28.2974243,16.7218552,27.524292,16.4226608,27.524292,16.4226608z M28.1038208,15.3251886
		c0.9328003-0.2237549,1.5500488-0.7366943,1.5500488-0.7366943C28.8379517,15.6884699,28.1038208,15.3251886,28.1038208,15.3251886
		z M28.7009277,14.2666559c0.9353638-0.3544922,1.6091919-0.9328003,1.6091919-0.9328003
		C29.5696411,14.4602594,28.7009277,14.2666559,28.7009277,14.2666559z M29.9706421,12.5431452
		c-0.7228394,0.1282349-1.567627,0.7391968-1.567627,0.7391968c-1.0723267,0.5971069-2.0692749,1.6820679-2.0692749,1.6820679
		c-1.2181396,1.5651236-1.5123291,2.5632925-1.5123291,2.5632925l-0.0716553-0.2237549
		c0.168457-0.1798096,0.0716553-0.3269043,0.0716553-0.3269043c-0.1470947-0.1168823-0.2288208-0.2224731-0.2753296-0.2966309
		c-0.0150757-0.1621704-0.1345215-0.1420898-0.1345215-0.1420898c0-0.5305176-0.277832-0.4802246-0.277832-0.4802246
		c-0.2689819,0-0.3419189-0.0703726-0.3419189-0.0703726c-0.2576904-0.2741089-0.4827271,0.1357412-0.4827271,0.1357412
		c-0.2640381,0.1131592-0.4450684-0.0200806-0.4450684-0.0200806c-0.2237549-0.1156607-0.3683472,0.0716553-0.3683472,0.0716553
		c-0.1395264,0.1621704-0.1546021,0.1344604-0.1546021,0.1344604c-0.3319092,0.1420898-0.196106,0.5644531-0.196106,0.5644531
		c-0.4563599,0.1521606-0.3557739,0.4576416-0.3557739,0.4576416c-0.0075684,0.2463989,0.1470947,0.3067017,0.1470947,0.3067017
		l0.145813,0.0691528l-0.1621704,0.4048462c-0.0691528,0.3306274,0.3897095,0.5393066,0.3897095,0.5393066
		s0.0892334,0.0804443,0.159668,0.241333c0,0,0.0565796,0.3909912,0.350708,0.3909912c0,0,0.0390015,0.1986084-0.2790527,0.3041992
		c-0.1772461,0.0704346-0.3721313,0.2061768-0.3721313,0.2061768c-0.2086792-0.1332397-0.4689331-0.1206665-0.4689331-0.1206665
		s-0.4487915-0.3796387-0.6209717-1.4557495c-0.0855103-0.5129395-0.2225342-0.7191162-0.2225342-0.7191162
		c-0.7694092-1.2282104-1.3451538-1.5249014-1.9121094-1.9661856c0,0-1.5689087-0.8435059-2.8839111-1.3287964
		c-0.2879028-0.1013794-0.9898071-0.2504883-1.3630371-0.3266602c2.3365479-2.7349243,5.3171997-4.378418,8.5415649-4.378418
		c2.5932617,0,5.0216675,1.0805664,7.092041,2.9203491C30.1208496,12.5154963,29.9706421,12.5431452,29.9706421,12.5431452z
		 M23.2388916,8.690362c-3.6290894,0-6.9345093,1.8933105-9.4641113,4.9920044
		c-0.2438965-0.0643311-0.5198975-0.1502075-0.7857666-0.2666016c2.7050171-3.3884277,6.2957153-5.4737549,10.2503052-5.4737549
		c3.1652832,0,6.1035156,1.328125,8.5375977,3.5957642c-0.2877197,0.1362305-0.5635376,0.2963867-0.7227173,0.394043
		C28.803833,9.8888483,26.1238403,8.690362,23.2388916,8.690362z M13.6101685,15.3069391
		c0.0106201,0.0024414,0.0179443,0.0058594,0.0289307,0.0081787c0,0,0.1948853,0.0352173,0.182312,0.350769
		c0,0,0.1244507,0.204895,0.487793,0.3457022c0,0,0.3419189,0.0880127,0.4060059,0.3984985
		c0,0,0.1270142,0.2137451,0.3180542,0.2879028c0,0,0.2200317,0.0263672,0.2124634,0.364563
		c0,0,0.0264282,0.2954102,0.5230103,0.5757446c0,0,0.1608887,0.1169434,0.2539062,0.4048462
		c0,0,0.013855,0.1370239,0.2954712,0.1936035c0,0,0.2979126,0.1508179,0.3306274,0.3394165
		c0,0,0.036438,0.21875,0.1948242,0.3557739c0,0,0.1194458,0.0829468,0.1257324,0.1973877
		c0,0,0.1583862,0.2740479,0.2639771,0.3532104l0.0251465,0.3168335c0,0-0.4978027-0.0641479-1.5814819,0.269043
		c0,0-0.0263672-0.0037842-0.5015869,0.0791626c0,0-0.4211426,0.0980835-0.5732422,0.1395264
		c-0.1773071,0.0955811-0.6486816,0.1747437-0.6486816,0.1747437c-0.4752197,0.0327148-0.8146362,0.2741089-0.8146362,0.2741089
		l-0.1936035,0.2727661c-0.196106,0.2702637-0.3532715,0.0767212-0.3532715,0.0767212c-0.2174683-0.1521606-0.2879028,0-0.2879028,0
		c-0.1873169,0.0565186-0.3494873-0.1659546-0.3494873-0.1659546c-0.1382446-0.1144409-0.1483154,0.072876-0.1483154,0.072876
		c-0.2489014-0.1923218-0.2828369-0.0766602-0.2828369-0.0766602c-0.0402832,0.0905151,0.2098999,0.3708496,0.2098999,0.3708496
		c0.0490723,0.1181641-0.072876,0.1558838-0.072876,0.1558838c-0.3331909,0.072937-0.1169434,0.3180542-0.1169434,0.3180542
		c0.1370239,0.1156616,0.1659546,0.1772461,0.1659546,0.1772461c0.0817261,0.1936035,0.2526855,0.0955811,0.2526855,0.0955811
		c0.2212524-0.0062866,0.2929077,0.0527954,0.2929077,0.0527954c0.2275391,0.0112915,0.1810303,0.0703735,0.1810303,0.0703735
		c-0.0415039,0.1169434,0.0100708,0.0968018,0.0100708,0.0968018c0.1898193,0.050293,0.4512939-0.1759644,0.4512939-0.1759644
		c0.1923218-0.2137451,0.2841187-0.1672363,0.2841187-0.1672363c0.132019,0.0905151,0.2476807,0.0100708,0.2476807,0.0100708
		c0.1709595-0.0829468,0.305481-0.0640869,0.305481-0.0640869c0.3155518,0.1307373,0.3758545-0.050293,0.3758545-0.050293
		c0.0565796-0.1005859,0.1030884-0.0805054,0.1030884-0.0805054c0.3319092,0.0578613,0.460144-0.2237549,0.460144-0.2237549
		c0.1168823-0.2225342,0.1269531-0.1734619,0.1269531-0.1734619c0.2086792-0.1131592,0.2702637-0.2137451,0.2702637-0.2137451
		c0.0075684-0.1030884,0.0880127-0.1495972,0.0880127-0.1495972c0.1257324,0.0075684,0.168457-0.0112915,0.168457-0.0112915
		c0.145813-0.1370239,0.2099609-0.1722412,0.2099609-0.1722412c0.2501831,0.0188599,0.5254517,0.0188599,0.5254517,0.0188599
		c0.5632324,0.0175781,1.0648193,0.0527954,1.0648193,0.0527954c0.5707397,0.0917969,1.1414795-0.1408081,1.1414795-0.1408081
		c0.0427246,0.3344116,0.269043,0.2602539,0.269043,0.2602539c0.0666504,0.3381348,0.4312134,0.21875,0.4312134,0.21875
		c0.0716553,0.2350464,0.3192749,0.09552,0.3192749,0.09552c0.0527954-0.0238647,0.1948853-0.09552,0.1948853-0.09552
		c0.2426147-0.0616455,0.3306274-0.21875,0.3306274-0.21875l0.6248169,0.0515137c0,0,0.5719604,0,0.546814,0.6826172
		l0.1043701,0.7568359c0,0,0.0314331,0.1055908-0.0238647,0.2225342c0,0-0.0955811,0.1621704-0.1533813,0.3217773
		c-0.0779419,0.3469849-0.1307373,0.7002563-0.1307373,0.7002563c-0.0452881,0.4865112,0.4349365,0.3922119,0.4349365,0.3922119
		c0.21875-0.0289307,0.2640381,0.1533813,0.2640381,0.1533813s-0.6524658,1.3891602-1.0032349,1.9171753
		c0,0-0.4714355,0.1546021-0.2929077,0.6361084c0,0,0.3230591,0.473938,0,0.9415894c0,0-0.2011108,0.3519897-0.0415039,0.7894897
		c0,0,0.0515747,0.2300415,0.1722412,0.1583862c0,0,0.1370239-0.0880127,0.1835327,0.0993042
		c0,0,0.1898193,0.21875,0.3218384,0.2991943c0,0,0.2237549,0.1081543,0.0390015,0.4752197
		c0,0-0.2564697,0.3746338-0.072937,0.8045654c0,0,0.0640869,0.0905151,0.0339355,0.2589722
		c0,0-0.1583862,0.2351074,0.0892944,0.6688232c0,0,0.3343506,0.2966309,0.1633911,1.5072632
		c0,0,0.0050659,0.2438965-0.1936035,0.6411743c-0.0112915,0.0163574-0.0150757,0.0263672-0.0200806,0.0389404
		c-0.2250366,0.4174194-0.0490723,0.642395,0,1.0145264c0,0,0.1332397,0.2577515,0.5946045,0.2237549
		c0.4588623-0.0376587,0.3432007-0.0502319,0.3432007-0.0502319c0.4714355-0.1470947,1.2043457-0.159668,1.2043457-0.159668
		c0.0942993,0.6662598,0.0779419,1.4105225,0.0779419,1.4105225l-0.3067627,0.3444214
		c-0.3192749,0.2879028-0.2451172,0.5795288-0.2451172,0.5795288c0.0653687,0.3080444,0.3746338,0.2665405,0.3746338,0.2665405
		c-0.1068726,0.9328003-0.3218384,1.239563-0.3218384,1.239563c-0.7995605,0.2388306-1.2432861,0.984314-1.2432861,1.8580322
		c0,1.0761108,0.8686523,1.9435425,1.9397583,1.9435425c1.0723267,0,1.9384766-0.8674316,1.9384766-1.9435425
		c0-0.9101562-0.5858154-1.6619263-1.4318848-1.868103c0,0-0.0703735-0.7580566,0.5870972-0.7454834
		c0,0,0.4802246,0.1621704,0.9013672-0.0615845c0,0,0.1081543-0.0716553,0.4312134-0.0716553c0,0,0.1860352,0,0.5204468-0.2250366
		c0,0,0.7254028-0.3004761,1.4972534-0.3658447c1.494751-0.1383057,1.749939-0.8674316,1.749939-0.8674316
		c0.2263184,0.0251465,0.4098511,0.0615845,0.4098511,0.0615845s0.7807007,0,1.1239014-0.2338257
		c0,0,0.1633911-0.1860352,0.0162964-0.3582764c0,0-0.2727661-0.2501831-0.3205566-0.8171387
		c0,0-0.7115479-2.1170044-2.9442139-3.5602417c-0.5317993-0.3444214-1.5462646-1.6556396-1.5462646-1.6556396
		c-0.3406982-0.3721313-0.2589722-0.5958862-0.2589722-0.5958862s0.0263672-0.2438965,0.4437256-0.2677612
		c0,0,0.2011719-0.0251465,0.3734131-0.0855103c0,0,0.1357422-0.0377197,0.0377197-0.2614746
		c0,0-0.5317993-0.5808105-0.7404785-1.0509644c0,0-0.1646729-0.5493774-0.7442017-1.2684326
		c0,0-0.5255127-0.6851807-0.5908813-0.7719116c-0.0641479-0.086731-0.0779419-0.2426147-0.0540771-0.2866211
		c0.0339355-0.0804443,0.1911011-0.0540771,0.1911011-0.0540771c0.132019-0.0540771,0.3909912,0.168457,0.3909912,0.168457
		c0.2626953,0.1408081,0.3771362,0.0251465,0.3771362,0.0251465c-0.0188599-0.1810303,0.0980225-0.0628662,0.0980225-0.0628662
		s0.2489624,0.583313,0.4048462,0.4664307c0,0,0.2828369-0.2954712-0.1420898-0.7505493
		c-0.0905151-0.0993042,0.2363281-0.3972168,0.2363281-0.3972168l0.7894897,0.6876221
		c-0.0339355,0.0641479-0.0137939,0.1672363-0.0137939,0.1672363s-0.072937,0.0175781-0.1810303,0.1130981
		c0,0-0.1973877,0.0239258-0.1747437,0.12323c0,0-0.0251465,0.0603638,0.1420288,0.0465088l0.1583862,0.0289307
		c0,0,0.0805054,0.0251465,0.1798096,0.0326538c-0.050293,0.0930176-0.0037842,0.2099609-0.050293,0.2677612
		c-0.0980835,0.1181641-0.3984985,0.2200317-0.3984985,0.2200317c-0.132019,0.0301514-0.0477905,0.1181641-0.0477905,0.1181641
		c-0.1445923,0.0075684-0.109375,0.0615845-0.109375,0.0615845c0.0125732,0.0716553,0.1520996,0.0930176,0.1520996,0.0930176
		c-0.0137939,0.1005859,0.0402222,0.1056519,0.0402222,0.1056519l0.1521606,0.059082
		c0,0.036438,0.0879517,0.0440063,0.0879517,0.0440063l0.1420898-0.0314331
		c0.1269531-0.0415039,0.1646729-0.1773071,0.1646729-0.1773071c0.0075684-0.0716553,0.0490112-0.2136841,0.0490112-0.2136841
		c0.0151367-0.0264282,0.168457-0.4173584,0.168457-0.4173584s0.2074585-0.3847046-0.0251465-0.947876
		c-0.2727661-0.6084595-0.4185791-0.9453735-0.473938-1.0698853c-0.0150757-0.0351562-0.0251465-0.0540161-0.0251465-0.0540161
		s0.0742188-0.0691528,0.0905151-0.2828979c0,0,0.0427856-0.1043091-0.1520996-0.2111816
		c0,0,0.0767212-0.1483154-0.1194458-0.196106c0,0-0.0050049-0.6826172-0.5166626-0.7857056l-0.1634521,0.0615845
		c0,0-0.2702637-0.7077637-0.364563-1.0736084c0,0,0.0075684-0.3029785-0.2463989-0.4927979l-0.19104-0.1256714l0.0527954-0.0792236
		c0.8397217,0.5430908,1.0622559,0.2589722,1.0622559,0.2589722c0.1156616,0,0.3205566-0.4676514,0.3205566-0.4676514
		c0.2866821-0.0905151,0.168457-0.5405884,0.168457-0.5405884c0.1710205-0.1948242-0.0150757-0.5066528-0.0150757-0.5066528
		c0.2200317-0.0402222,0.4450684-0.3494263,0.4450684-0.3494263c0.3482056-0.0515747,0.4638672-0.7807007,0.4638672-0.7807007
		c0.3369141-0.1495972,0.241333-0.5770264,0.241333-0.5770264c0.2376099-0.159668,0.1219482-0.4953003,0.1219482-0.4953003
		c0.2841187-0.0892944,0.2338257-0.1533813,0.2338257-0.1533813c0.0754395-0.2099609,0.21875-0.2879028,0.21875-0.2879028
		c0.6499634-0.3859253,0.6575317-0.5556631,0.6575317-0.5556631c0.1055908-0.4299316,0.3016968-0.4676514,0.3016968-0.4676514
		c0.5870972-0.1785278,0.5870972-0.6235352,0.5870972-0.6235352c-0.0830078-0.2652588,0.2539062-0.4387817,0.2539062-0.4387817
		c0.2941895-0.1596069,0.1584473-0.5317383,0.1584473-0.5317383c0.0132446-0.3591919,0.5343628-0.5865479,0.5783691-0.6051636
		c3.3720703,3.5030508,5.5944214,9.1577139,5.5944214,15.5567617c0,10.5964355-6.1625366,19.1965332-13.5130005,19.2619019
		c-7.3844604,0-13.4929199-8.6202393-13.4929199-19.2619019C9.7359619,23.5230026,11.2230225,18.7795334,13.6101685,15.3069391z
		 M13.5460815,20.8415451c-0.0263672-0.013855-0.0880127-0.0163574-0.09552-0.0477905
		c-0.0213623-0.109375,0.2111816-0.0653687,0.2576904-0.0578003c0.0415039,0.0087891,0.0930176,0.0376587,0.1345215,0.0452271
		c0.0477905,0.0087891,0.0842285-0.0125732,0.1257324-0.0201416c0.1282349,0,0.2878418,0.1257324,0.2702637,0.2250366
		c-0.0125732,0.086792,0.0213623,0.0942993,0.1005859,0.1358032c0.1005859,0.0515137,0.2212524,0.1005859,0.255188,0.2212524
		c0.0415039,0.1357422-0.2262573,0.0691528-0.2929077,0.0389404c-0.1219482-0.059082-0.1433105-0.1759644-0.2841187-0.1998291
		c-0.1571655-0.0188599-0.3193359,0-0.4663696-0.0565796c-0.0377197-0.0113525-0.2338867-0.109375-0.182312-0.1722412
		c0.0163574-0.0301514,0.1257324-0.0150757,0.1508789-0.0150757c0.0653687,0.0012207,0.1193848,0.0037231,0.1784668-0.0050659
		C13.6617432,20.8918381,13.6001587,20.8616257,13.5460815,20.8415451z M14.5530396,20.8867722
		c-0.0628052-0.0339355-0.1206665-0.0415039-0.1885376-0.0665894c-0.1508789-0.0616455,0.0087891-0.1760254,0.1231689-0.1420898
		c0.0917969,0.0289307,0.1508789-0.0251465,0.2426758,0.0213623c0.0326538,0.0213623,0.0578003,0.0540771,0.0804443,0.0804443
		c0.0490112,0.0452881,0.1256714,0.1018677,0.0112915,0.12323C14.7303467,20.9232712,14.6360474,20.9307785,14.5530396,20.8867722z
		 M12.2374268,21.553093c-0.0716553-0.0327148-0.0264282-0.0477905,0.0062866-0.0842285
		c0.0377197-0.0377197,0.0389404-0.0792236,0.0515137-0.1307373c0.0678711-0.0050659,0.1558838-0.0100708,0.2225342,0.0050049
		c0.0414429,0.0075684,0.2061768-0.0666504,0.2539062-0.0515747c0.050293,0.0251465,0.1333008,0.0188599,0.1634521,0.0553589
		c0.0540771,0.0653687,0.0289307,0.1546021-0.0251465,0.1923218c-0.050293,0.0440063-0.050293,0.086731-0.0792236,0.1383057
		c-0.022583,0.0414429-0.0477295,0.1168823-0.081665,0.1470947c-0.0377197,0.0238647-0.1118774,0.0200806-0.1558838,0.0288696
		c-0.0616455,0.0125732-0.1194458,0.0440063-0.1873169,0.0565796c-0.0779419,0.0150757-0.0754395-0.0791626-0.050293-0.1395264
		c0.0188599-0.0515747,0.1080933-0.1143799,0.0804443-0.1797485C12.4133911,21.5304489,12.2914429,21.5794601,12.2374268,21.553093z
		 M8.8660278,28.7606735c0,10.9949341,6.324646,19.9231567,14.362854,20.0727539
		c7.9337769,0,14.3791504-8.9822388,14.3791504-20.0727539c0-6.6495972-2.324585-12.5273438-5.8910522-16.1796875
		c0.1815186-0.1618042,0.4134521-0.2365112,0.4134521-0.2365112c0.1108398-0.0552979,0.1975098-0.1104126,0.2731323-0.164917
		c3.6619873,3.8022461,6.0383301,9.8056631,6.0383301,16.5806885c0,11.4990845-6.8074341,20.8170776-15.2025757,20.8170776
		c-8.4417725-0.2426758-15.2077026-9.4700928-15.2077026-20.8170776c0-5.7227173,1.6901245-10.9060059,4.4223633-14.6702261
		c0.0180664,0.0795288,0.09552,0.2952271,0.4346313,0.3702393c0,0,0.0288696,0.0212402,0.0874023,0.2625732
		C10.4364624,18.3427658,8.8660278,23.2937546,8.8660278,28.7606735z M23.3247681,3.0089655
		c0.4211426-0.3469849,0.9365845-0.5280151,1.5337524-0.5280151c0.0854492,0,0.1784668,0.0075684,0.2740479,0.0150757
		c0.715271,0.059082,1.2948608,0.3331299,1.699646,0.8071289c0.414856,0.473938,0.5983887,1.0761108,0.5380249,1.7850952
		c-0.0540161,0.706543-0.3306274,1.2747803-0.8183594,1.6745605c-0.4136353,0.3419189-0.9554443,0.5204468-1.5714722,0.5204468
		c-0.0879517,0-0.1797485-0.0037842-0.2740479-0.0113525c-0.6951904-0.0640869-1.2546387-0.3356323-1.6619263-0.8032837
		c-0.4110718-0.4815063-0.5895996-1.0848999-0.5343018-1.7851562C22.5667114,3.9744196,22.8395386,3.4137506,23.3247681,3.0089655z
		 M16.3890991,3.9204035c1.3287964-0.5895996,2.6940918-1.0107422,4.0731812-1.2458496l0.1181641-0.0238647l0.460083,1.9498291
		l-0.7693481,0.2313232l-0.0390015-0.12323c-0.1571045-0.5116577-0.3657837-0.7807007-0.6159668-0.7807007
		c-0.0804443,0-0.1546631,0.0339355-0.1998901,0.0616455l0.4990845,2.1547241
		c0.1194458,0.3972778,0.2011719,0.496582,0.2300415,0.5204468c0.0050659,0,0.0289307,0.0062866,0.0842285,0.0062866
		c0.0955811,0,0.2426147-0.0201416,0.3922729-0.0565796l0.1168823-0.0301514l0.2225342,0.7731323l-0.1395874,0.0339355
		c-0.8234253,0.1621704-1.6455688,0.4173584-2.4526367,0.7693481L18.2283325,8.219842l-0.2174683-0.7907715l0.1256714-0.0352173
		c0.1646729-0.050293,0.4412842-0.2426147,0.4752197-0.3092651c0.0125732-0.036438,0.0339355-0.1596069-0.0792236-0.5669556
		l-0.5606689-2.1245728c-0.0993042,0.0125732-0.2275391,0.0452881-0.3130493,0.159668
		c-0.1495972,0.1722412-0.196106,0.4852295-0.1395264,0.9038696l0.013855,0.1055908l-0.7216187,0.2577515l-0.5204468-1.8492432
		L16.3890991,3.9204035z M10.9117432,7.6415339c1.0723267-1.0157471,2.2188721-1.8970337,3.4081421-2.6211548l0.1130981-0.0691528
		l1.0547485,1.6644897l-0.6386108,0.4890137l-0.0754395-0.1005859c-0.277832-0.3532715-0.5267334-0.5368042-0.7354126-0.5368042
		c-0.1383057,0-0.2351074,0.0842285-0.2879028,0.1470947L14.97229,8.4573908
		c0.2489624,0.34198,0.3633423,0.4022827,0.3972778,0.4098511c0.0527954-0.0025024,0.2237549-0.0754395,0.4262085-0.2174683
		l0.1080933-0.0691528l0.387207,0.5405884l0.0716553,0.1282349l-0.1156616,0.0565186
		c-0.6976929,0.4576416-1.3753052,0.9931641-2.0290527,1.5915527l-0.0754395,0.0641479l-0.0854492-0.0603638l-0.4249268-0.5657349
		l0.1018066-0.0779419c0.1408081-0.1130981,0.3306274-0.3934937,0.34198-0.4638672
		c0-0.0213623-0.0188599-0.1433105-0.2728271-0.5040894l-1.2659302-1.7927246
		c-0.0716553,0.0377197-0.1722412,0.1068726-0.2288208,0.2363281c-0.0930176,0.2150269-0.0351562,0.5355835,0.1722412,0.9165039
		l0.0565796,0.109375l-0.6486816,0.4198608L10.8300171,7.718194L10.9117432,7.6415339z M7.3880005,11.9070368
		c0.4940186-0.75177,1.0119629-1.4708862,1.553833-2.1258545l0.0968018-0.1231689l0.1005249,0.1206665l0.5141602,0.378418
		l-0.0741577,0.1068115c-0.2287598,0.3243408-0.2199707,0.4262085-0.2199707,0.4262085
		c0.0025024,0.0314331,0.0665894,0.1520996,0.4022827,0.4022827l1.3363037,1.006958
		c0.3444824,0.2576904,0.473999,0.2753296,0.5079346,0.2753296c0.0527954-0.0037842,0.2614746-0.1358032,0.3959961-0.2954712
		l0.0791626-0.0968018l0.6348877,0.4765015l-0.0880127,0.1118774c-0.1315308,0.1575928-0.2573853,0.3311157-0.3862305,0.4966431
		c-0.0021973,0.0046997-0.007019,0.0045776-0.0082397,0.0106812c-0.3955078,0.508728-0.7820435,1.0408936-1.1442871,1.605896
		l-0.0754395,0.1182251l-0.6373291-0.473938l0.0741577-0.1043701c0.1219482-0.1835327,0.1797485-0.3771362,0.1709595-0.4287109
		c-0.0137939-0.0351562-0.0741577-0.1520996-0.4110718-0.4022827l-1.3338623-1.0019531
		c-0.3343506-0.2501221-0.4625854-0.2803345-0.5040894-0.2803345c-0.0527954,0-0.2162476,0.1055908-0.3482056,0.2678223
		l-0.0792236,0.0930176L7.3238525,12.006341L7.3880005,11.9070368z M4.4512939,17.8884811
		c0.2677612-0.7781372,0.5845947-1.5613403,0.9315186-2.3181753l0.0465088-0.1018066l0.1030884,0.0339355l0.6084595,0.2627563
		l-0.0414429,0.1118774c-0.0842285,0.2489004-0.1005859,0.3444815-0.0930786,0.3834219
		c0.0490723,0.0540771,0.072937,0.0641479,0.1785278,0.0741577l0.0892944,0.0025635l1.8530273,0.2501221l-1.399231-1.1904898
		c-0.1307373-0.1156616-0.1772461-0.1483154-0.1898193-0.1533813c-0.0829468,0.0050659-0.1420288,0.0540771-0.277832,0.2954102
		l-0.0578003,0.1106567l-0.5845947-0.2602539L5.539978,15.3226862l0.0037842-0.1181641
		c0.2702637-0.5619507,0.6587524-1.3891602,0.97052-1.9486084l0.6386108,0.4588623l-0.0289307,0.109375
		c-0.0552979,0.1722412-0.0678711,0.2237549-0.0427246,0.3294067c0.0339355,0.1256714,0.1030884,0.2438354,0.2136841,0.3544922
		l2.5922852,2.3269644l-0.0390015,0.0905151c-0.1911011,0.3934937-0.3847046,0.84729-0.5543823,1.2571411l-0.0390015,0.0917969
		L5.845459,17.8243942c-0.2225342,0-0.3394165,0.0276489-0.4161377,0.0665894
		c-0.0942383,0.050293-0.182251,0.159668-0.2752686,0.3118286L5.093689,18.3071213l-0.6889038-0.3079834L4.4512939,17.8884811z
		 M3.1061401,34.5355759c-0.1357422-0.7605591-0.2451172-1.5576172-0.3268433-2.3860474L2.7642212,32.028862l0.742981-0.0842285
		l0.0162964,0.131958c0.013855,0.1860962,0.0980835,0.4827881,0.132019,0.5368042l0.0050049-0.0087891l0.1621704,0.0087891
		l0.5506592-0.2740479l-0.109375-1.1239014l-0.5129395-0.1143799L3.65802,31.0960617
		c-0.0980225,0.0125732-0.1131592,0.0440063-0.1206665,0.0615845c-0.013855,0.0263672-0.0440063,0.1043091-0.0301514,0.3067627
		l0.0112915,0.1269531l-0.7731323,0.0791626l-0.0150757-0.1344604c-0.0553589-0.6851807-0.0980835-1.2772827-0.1131592-1.9309692
		l-0.0050049-0.1194458l0.6813354-0.0741577l0.0289307,0.1080933c0.0540161,0.2476807,0.2891235,0.5480957,0.6687622,0.6625366
		l3.3440552,0.7228394l0.022583,0.1835327c0.022644,0.3570557,0.050293,0.7593384,0.1358032,1.3753052l0.0100708,0.0955811
		L4.2401123,33.896965c-0.3080444,0.1533813-0.4437866,0.3192749-0.4487915,0.5204468v0.1030884L3.125,34.6713791
		L3.1061401,34.5355759z M4.0263672,38.6061935c-0.0779419-0.2224731-0.1370239-0.4638672-0.1621704-0.7039795
		c-0.0289307-0.2162476-0.0112915-0.5543823,0.0113525-0.7844849l-0.2954712-0.0703735l-0.196106-0.65625l1.6053467-0.7844238
		l0.3269043,0.7115479l-0.0515747,0.0615845c-0.2954102,0.3607788-0.4085693,0.5028687-0.4953003,0.8447876
		c-0.0817261,0.3432007-0.0741577,0.6700439,0.036438,0.9655151c0.072937,0.1986084,0.1735229,0.3457031,0.3130493,0.4437256
		c0.0779419,0.0540771,0.1546021,0.0779419,0.2212524,0.0779419c0.0390015,0,0.0741577-0.0037231,0.1106567-0.0213623
		c0.0552979-0.022583,0.2212524-0.1671753,0.1130981-1.0761108L5.5324097,37.396843
		c-0.0402222-0.3469849-0.0640869-0.6348877-0.0779419-0.84729c-0.0100098-0.21875-0.0037231-0.3834839,0.0214233-0.4915771
		c0.0452271-0.2275391,0.1382446-0.4274292,0.2677612-0.5983887c0.1370239-0.1697388,0.3117676-0.2954102,0.5166626-0.3809204
		c0.1797485-0.0842285,0.3595581-0.1181641,0.5355225-0.1181641c0.2250366,0,0.4425659,0.0615845,0.6537476,0.1772461
		c0.3758545,0.2061768,0.6574707,0.5644531,0.8347168,1.0534668c0.0440063,0.1144409,0.1798096,0.5079346,0.1936035,0.7492676
		l0.0163574,0.1219482c0.0188599,0.182312,0.0427246,0.4211426,0.0377197,0.6021729l0.2212524,0.0704346l0.2086792,0.5996094
		l-1.494751,0.6726074l-0.2388306-0.6801147l0.0440063-0.0565796c0.204895-0.2753296,0.3180542-0.4299316,0.3708496-0.7027588
		c0.0565796-0.2576904-0.0264282-0.6574707-0.1269531-0.947876c-0.0666504-0.1760254-0.1533813-0.3016968-0.2489624-0.3696289
		c-0.0552979-0.0427246-0.1055908-0.059082-0.1520996-0.059082c-0.0301514,0-0.059082,0-0.0880127,0.0163574
		c-0.0339355,0.0150757-0.2061768,0.1495972-0.059082,1.2156982l0.0339355,0.2702637
		c0.0792236,0.6134644,0.0616455,1.0585327-0.0490112,1.3677368c-0.1168823,0.3118286-0.3607788,0.5493774-0.7190552,0.7040405
		c-0.21875,0.0968018-0.4362793,0.1408081-0.6474609,0.1408081c-0.2262573,0-0.4550781-0.0540771-0.6637573-0.1697388
		C4.5254517,39.5251999,4.2212524,39.1467819,4.0263672,38.6061935z M6.2778931,43.7730637
		c-0.1256714-0.1873169-0.2375488-0.4098511-0.3255615-0.6398926c-0.0792236-0.2073975-0.145813-0.5405884-0.1747437-0.7668457
		l-0.3016968,0.0037842l-0.3444824-0.5983887l1.371521-1.1414795l0.4902954,0.6109619l-0.0326538,0.0791626
		c-0.196167,0.4123535-0.2816162,0.5883789-0.2866211,0.9328003c0,0.3570557,0.0904541,0.670105,0.2639771,0.9328003
		c0.1143799,0.1772461,0.2501831,0.2904053,0.4085693,0.3532715c0.0565796,0.0251465,0.1156616,0.0390015,0.1697388,0.0390015
		c0.0615845,0,0.1156006-0.0214233,0.1621704-0.0553589c0.0502319-0.0351562,0.1835327-0.2161865-0.1420898-1.0736084
		l-0.0766602-0.2073975c-0.1282349-0.3306274-0.2162476-0.5983887-0.2753296-0.802063
		c-0.059082-0.2061768-0.09552-0.3721313-0.1030884-0.4852295c-0.0037842-0.2288208,0.0377197-0.4475708,0.1282349-0.6411743
		c0.0917358-0.196106,0.2275391-0.3683472,0.4072876-0.5015869c0.2451782-0.1810303,0.510437-0.2740479,0.7857056-0.2740479
		c0.1295166,0,0.255249,0.0213623,0.3847046,0.0615845c0.414856,0.109375,0.7706299,0.3859253,1.0610352,0.8196411
		c0.086731,0.1345215,0.2904053,0.4588623,0.3620605,0.6826172l0.0452271,0.1307983
		c0.059082,0.1709595,0.1433105,0.3821411,0.1747437,0.5618896l0.2313232,0.0176392l0.3444824,0.5305176L9.71875,43.3519211
		l-0.3960571-0.6071777l0.0327148-0.0628662c0.132019-0.3155518,0.2036743-0.5015869,0.1986084-0.7731323
		c-0.0150757-0.2652588-0.1923218-0.6348877-0.3557739-0.8837891c-0.1005249-0.159668-0.2136841-0.2652588-0.3268433-0.3117676
		c-0.0452271-0.0163574-0.0842285-0.0264282-0.1181641-0.0264282c-0.0465088,0-0.0905151,0.0151367-0.1269531,0.0465088
		c-0.0302124,0.0214233-0.1621704,0.1936035,0.2325439,1.1980591l0.0792236,0.2087402
		c0.2350464,0.6209717,0.3255615,1.0635376,0.2841187,1.3853149c-0.0402222,0.3331909-0.2175293,0.6235962-0.5230103,0.8498535
		c-0.2966919,0.2174683-0.605896,0.3306274-0.9252319,0.3306274c-0.1206665,0-0.2438965-0.0125732-0.3607788-0.0415039
		C6.975647,44.5512619,6.5871582,44.2495041,6.2778931,43.7730637z M9.8758545,47.6060715l0.072937,0.1056519l-0.6109619,0.4575806
		l-0.0817261-0.0678711c-0.6009521-0.53302-1.5802612-2.0592041-1.6204834-2.1258545l-0.0603027-0.1018066l0.6222534-0.4639282
		l0.0691528,0.0917969c0.1445923,0.1772461,0.3167725,0.2891235,0.3595581,0.291687
		c0.0515137,0,0.1784668-0.0239258,0.5065918-0.2715454l1.3413696-1.007019
		c0.3457642-0.2501221,0.3985596-0.3733521,0.4048462-0.4035034c0.0137939-0.0490723-0.0390015-0.2401123-0.1558838-0.4136353
		l-0.0767212-0.1068115l0.6726074-0.4664307l0.0690918,0.1055908c0.4437866,0.6637573,0.9365845,1.2923584,1.590332,2.0302734
		l0.0905151,0.1056519l-0.6889648,0.5304565l-0.0791626-0.1005249c-0.2476807-0.3143311-0.34198-0.3306274-0.34198-0.3306274
		c-0.0402222,0-0.1772461,0.0238647-0.5078735,0.2689819l-1.3375854,1.0044556
		c-0.3457031,0.255249-0.3947144,0.3734131-0.4022827,0.4073486C9.6973267,47.1975021,9.7614746,47.4388962,9.8758545,47.6060715z
		 M14.9396362,48.4257736c-0.0452881-0.2476807-0.1998901-0.4639282-0.4437866-0.6235352
		c-0.1370239-0.0905151-0.2401123-0.1333008-0.3557739-0.1333008c-0.0942993,0-0.204895,0.0302124-0.3683472,0.0905151
		c-0.3079834,0.1207275-0.5518799,0.4337158-0.8372192,0.852356c-0.2426758,0.3670654-0.350769,0.7542725-0.3269043,1.1289062
		c0.0025635,0.0113525,0.0754395,0.4312134,0.65625,0.7027588c0.0741577,0.0339355,0.1470947,0.0477905,0.2263184,0.0477905
		c0.3796387,0,0.7454834-0.4274292,0.8522949-0.5996704l0.0679321-0.1106567l0.7052612,0.4639282l-0.0528564,0.109375
		c-0.2714844,0.4726562-0.883728,0.9956055-1.4896851,1.0308228c-0.0741577,0.0025024-0.1332397,0.0087891-0.1973877,0.0087891
		c-0.4412231,0-0.7969971-0.1055908-1.1213379-0.3192749c-0.5983887-0.3972778-0.9743042-0.9102173-1.0974731-1.5261841
		c-0.1270142-0.6122437,0.0112915-1.2319946,0.4047852-1.8341675c0.3834229-0.5745239,0.8875122-0.9315796,1.4959717-1.0560303
		c0.1621704-0.0326538,0.31427-0.050293,0.4613647-0.050293c0.451355,0,0.8988647,0.145874,1.3225098,0.4262085
		C15,47.1397018,15.1344604,47.2616501,15.2526855,47.3961716c0.1105957,0.1156616,0.1986084,0.2514038,0.2866211,0.3959961
		l0.1633911-0.0565796l0.132019,0.0942993c0.1370239,0.1018066,0.2263184,0.1659546,0.3897095,0.2752686l0.1030884,0.0679321
		l-0.9415894,1.5789795l-0.7693481-0.5355835l0.0905151-0.1043091
		C15.0025024,48.7626877,14.9697876,48.6168137,14.9396362,48.4257736z M20.8016968,50.921196l-0.1219482-0.0427856
		c-0.0452271-0.0162964-0.0829468-0.0288696-0.1282349-0.0288696c-0.1131592,0-0.1936035,0.0414429-0.2212524,0.0640869
		c-0.036438,0.0188599-0.1345215,0.1118774-0.3029785,0.5230103l-0.5217285,1.3010864
		c-0.2438354,0.6273193-0.5719604,1.0333862-0.9717407,1.2119141c-0.1646729,0.0766602-0.3544922,0.1118774-0.5619507,0.1118774
		c-0.2740479,0-0.597168-0.0691528-0.9440918-0.2086792c-0.5921631-0.241394-0.9918823-0.5518799-1.1829834-0.9277954
		c-0.2011719-0.3859253-0.2011719-0.8435059,0.0050049-1.3513794l0.6248169-1.5601196
		c0.1709595-0.4312134,0.1608887-0.5682373,0.1533813-0.5996704c-0.022644-0.0653687-0.1055908-0.1332397-0.2577515-0.1973877
		l-0.1206665-0.0477295l0.3959961-0.8146362l0.1169434,0.0716553c0.6235352,0.3771362,1.2382812,0.6763306,1.9271851,0.9629517
		l0.1282349,0.0427246l-0.3193359,0.6939697l-0.1131592-0.0402222c-0.086731-0.0314331-0.1646729-0.0527954-0.2249756-0.0527954
		c-0.0452881,0-0.0792236,0.0162964-0.1056519,0.0314331c-0.059082,0.036438-0.1370239,0.1219482-0.277832,0.4625854
		l-0.6172485,1.5450439c-0.1005249,0.2501831-0.1193848,0.4450073-0.0477295,0.6046753
		c0.0578003,0.1571655,0.1936035,0.277832,0.414856,0.3734131c0.1420288,0.0565186,0.2765503,0.0779419,0.3947144,0.0779419
		c0.1043701,0,0.1885986-0.013855,0.2728271-0.050293c0.19104-0.086792,0.3419189-0.277832,0.4562988-0.5657349l0.5619507-1.4017334
		c0.0892944-0.21875,0.1697388-0.4437256,0.1433105-0.5342407c-0.0276489-0.0980835-0.1445312-0.1659546-0.2401123-0.2049561
		l-0.1181641-0.050293l0.2766113-0.715271l0.1206665,0.036438c0.1722412,0.059082,0.3318481,0.1206665,0.4927979,0.1810303
		c0.3519897,0.1383057,0.6851196,0.2602539,1.0446777,0.3306274l0.1470947,0.0314331L20.8016968,50.921196z M26.6235352,54.2501144
		c-0.1131592,0.2991943-0.3193359,0.5229492-0.5858154,0.6524658c-0.1584473,0.081665-0.328125,0.1181641-0.5016479,0.1181641
		c-0.437439,0-0.8447876-0.2451782-1.0710449-0.6474609c-0.1345215-0.2451172-0.1056519-0.4274292-0.0955811-0.460083
		c0,0,0-0.2301025,0.0075684-0.6901855c0-0.1571655-0.0352173-0.2149658-0.0515747-0.2401123l-0.1030884-0.0201416
		l-0.6436157-0.0137939c-0.0125732,0.5593872,0,1.0195312,0.022583,1.0999756
		c0.036499,0.0390015,0.1773071,0.0792236,0.5179443,0.132019l0.1131592,0.0163574l0.0012817,0.7769165l-0.1181641,0.0100098
		c-0.2615356,0.0214233-0.5368042,0.0264282-0.8071289,0.0264282c-0.9453735,0-1.8240967-0.0980835-1.8291016-0.0980835
		l-0.1207275-0.0125732l-0.0037231-0.7718506l0.1118774-0.0163574c0.3783569-0.0527954,0.53302-0.0993042,0.5820312-0.1583862
		c0.022644-0.0302124,0.0754395-0.1433105,0.0754395-0.5682373l-0.0150757-1.6594238
		c-0.0050659-0.4324341-0.0603638-0.5480957-0.0842285-0.5820923c-0.0415039-0.0515137-0.1520996-0.0804443-0.31427-0.0879517
		l-0.1345215-0.0025635v-0.7869263l2.6085815-0.0213623c0.7329102,0,1.2105713,0.0892334,1.4946899,0.2702637
		c0.3331909,0.2162476,0.5016479,0.5531616,0.5016479,0.9893799c0.0075073,0.4940186-0.1986694,0.8435059-0.5895996,1.0170288
		c0.2463989,0.2036743,0.3217773,0.5644531,0.3217773,0.7869873l-0.0062866,0.6348267
		c-0.0062866,0.0490112-0.0162964,0.1395264,0.0515747,0.1495972h0.0050049c0.0440063,0,0.0679321-0.0766602,0.0704346-0.1080933
		l0.0326538-0.5343018l0.5783081,0.0578003l0.0075073,0.1131592C26.6700439,53.9433517,26.6235352,54.2375412,26.6235352,54.2501144
		z M31.5540161,52.7502975c-0.4575806,0.2451782-0.9202271,0.4978638-1.4016724,0.7480469l-0.1194458,0.059082l-0.291687-0.6311035
		l0.0540771-0.0930176l0.086731-0.0830078c0.1169434-0.0527954,0.3734131-0.2287598,0.4073486-0.2702637l-0.0100708-0.09552
		l-0.072937-0.1131592l-0.3809204-0.3947144l-1.0233154,0.4475098l0.036499,0.5430908l0.0263672,0.0930176
		c0.0201416,0.0477905,0.0465088,0.0767212,0.0880127,0.0842285l0.0163574,0.0050659
		c0.086731,0,0.1734619-0.0327148,0.2879028-0.0742188l0.1156006-0.0490112l0.3218384,0.7567749l-0.1193848,0.0515747
		c-0.5707397,0.2401123-1.0270996,0.387207-1.399231,0.5053711c-0.1558838,0.050293-0.2966919,0.0930176-0.4198608,0.1408081
		l-0.1257324,0.0427246l-0.2263184-0.6612549l0.0892944-0.0527954c0.2539062-0.1621704,0.4047852-0.4563599,0.3972778-0.7932739
		l-0.2263184-3.4621582l0.0917969-0.0377197c0.3432007-0.1433105,0.5921021-0.2564697,1.1967773-0.5505981l0.086731-0.0440063
		l2.2905273,2.6928101c0.1860352,0.19104,0.3557739,0.2828369,0.5053711,0.2828369
		c0.0427246,0,0.0892334-0.0062866,0.1307373-0.0175781l0.1030884-0.0339966l0.2866211,0.56073L31.5540161,52.7502975z
		 M36.3550415,49.0053024c-0.8623657,0.911438-1.2709351,1.444458-2.2553101,2.1723633l-0.4588623,0.2954102l-0.1671753,0.0917358
		l-0.0855103,0.0327148l-0.0540161-0.0980835l-0.0201416,0.0201416l-0.5078735-0.4902954v-0.0527954
		c-0.0100708-1.239563-0.0390015-3.1378174-0.0741577-3.7789917l-0.6286011,0.5908813
		c-0.1533813,0.196106-0.3218384,0.5480957,0.1722412,1.2244873l0.0703735,0.0967407l-0.6298218,0.5531616l-1.3890991-1.6066284
		l0.1143799-0.0817261c0.9893799-0.7366333,1.9397583-1.6229248,2.8084717-2.6299438l0.09552-0.1130981l0.8259277,0.9202271
		l0.0892944,3.6293335c0,0,0.1533813-0.1181641,0.1734619-0.1357422c0.2011719-0.1810303,0.4664307-0.4462891,0.5204468-0.7228394
		c0.0465088-0.2526855-0.0565796-0.5430908-0.19104-0.8862915l-0.0327148-0.0792236l0.050293-0.0766602l0.4286499-0.4412842
		l1.225769,1.4834595L36.3550415,49.0053024z M39.1848755,45.4098434c-0.4890137,0.7505493-0.9793091,1.4268799-1.6028442,2.1887207
		l-0.0804443,0.1005859l-0.642395-0.4790039l0.0804443-0.1055908c0.1948242-0.2753296,0.2300415-0.4123535,0.2262573-0.4375
		c-0.0112915-0.0389404-0.072876-0.159668-0.423645-0.4173584l-1.3262939-1.1389771
		c-0.3406372-0.2514038-0.4777222-0.2803345-0.5179443-0.2803345c-0.059082,0.0075684-0.2841187,0.1408081-0.4173584,0.31427
		l-0.0817261,0.0917969l-0.6524048-0.4802246l0.0829468-0.1043701c0.934082-1.1389771,1.5626221-2.2175903,1.5664062-2.2288818
		l0.0804443-0.1333008l0.6662598,0.5569458l-0.0690918,0.0993042c-0.1194458,0.1772461-0.1735229,0.3696289-0.159668,0.4337158
		c0.0301514,0.0942993,0.1018066,0.3268433,0.3469849,0.5204468l1.2910767,1.0459595
		c0.2979126,0.2212524,0.5292358,0.3218384,0.5895996,0.3218384c0.0540161-0.0075684,0.2652588-0.159668,0.4160767-0.3381958
		l0.0704346-0.1005859l0.6172485,0.4714355L39.1848755,45.4098434z M41.0844116,42.3248215
		c-0.3720703,0.6575317-0.8485718,1.0698242-1.4494629,1.2609253c-0.6147461,0.182312-1.2407837,0.1068726-1.8768921-0.2451172
		c-0.6398926-0.350769-1.043457-0.8272095-1.2194214-1.4482422c-0.1722412-0.6147461-0.0830078-1.2546387,0.2727661-1.9008179
		c0.3582764-0.6549683,0.838501-1.0723267,1.4557495-1.2659302c0.605957-0.1848145,1.2294922-0.1018066,1.8731689,0.2451172
		c0.633606,0.3444824,1.043457,0.8284912,1.2144165,1.4482422C41.5307007,41.0400314,41.4389648,41.6736374,41.0844116,42.3248215z
		 M43.1511841,35.4168625l-3.4068604,1.1590576l1.5550537,0.3544922c0.1986694,0.0490723,0.3583374,0.0704346,0.4664307,0.0704346
		h0.0062866c0.0691528,0,0.1043091-0.0100708,0.1043091-0.0100708c0.0930786-0.0465088,0.1433716-0.182251,0.1760254-0.2866211
		l0.0301514-0.1206665l0.7606201,0.1772461l-0.4249268,1.845459l-0.765625-0.1810303l0.0239258-0.1231689
		c0.0250854-0.159668,0.0150757-0.2715454-0.0339966-0.3306274c-0.0238647-0.0377197-0.1244507-0.1131592-0.5505981-0.2137451
		l-1.6468506-0.3733521c-0.3042603-0.0741577-0.5405884-0.1131592-0.6688232-0.1131592
		c-0.1345215,0.0390015-0.1885376,0.1395874-0.2325439,0.291687l-0.0339355,0.1219482l-0.7807007-0.1798096l0.1345215-0.3934937
		c0.1659546-0.5028076,0.3318481-0.9943848,0.473938-1.5123291l0.0175781-0.0678711l2.4275513-0.8146362l-0.6989746-0.1659546
		c-0.2086792-0.0490112-0.3708496-0.0741577-0.4789429-0.0741577c-0.0742188,0-0.1030884,0.0125732-0.1131592,0.0201416
		c-0.0666504,0.0263672-0.1244507,0.1282349-0.1671753,0.2828369l-0.0314331,0.1168823l-0.7530518-0.1759644l0.0175781-0.1282349
		l0.0842285-0.3658447c0.0930786-0.4022827,0.1873169-0.8070679,0.2514648-1.2194214l0.022583-0.1357422l0.815918,0.1885376
		l-0.022644,0.1207275c-0.0276489,0.1596069-0.022644,0.2765503,0.022644,0.3318481
		c0.022644,0.0188599,0.1181641,0.1081543,0.5531616,0.2074585l3.093811,0.7178345L43.1511841,35.4168625z M42.5440063,30.3694382
		c0.2287598,0,0.2878418-0.0377197,0.3092041-0.0490723c0.0440063-0.0314331,0.1257324-0.2098999,0.1571655-0.414856
		l0.0150757-0.1206665l0.7719116,0.0615845l0.0213623,0.1244507c-0.0301514,0.8800049-0.1080933,1.6845703-0.21875,2.6224365
		l-0.0100708,0.1206665l-0.7857056-0.059082l0.0075684-0.1332397c0.0200806-0.328125-0.0201416-0.4588623-0.0390015-0.4777222
		c-0.0150757-0.0150757-0.1269531-0.0892944-0.5594482-0.1282349l-1.6581421-0.1345215
		c-0.09552-0.0075684-0.182312-0.0125732-0.2602539-0.0125732c-0.2237549,0-0.2991943,0.0339355-0.31427,0.0465088
		c-0.0515137,0.036438-0.159668,0.2602539-0.182251,0.4575806l-0.0075684,0.1295166l-0.6650391-0.0540771l-0.1420288-0.0527954
		v-0.1043091c0.1130981-0.788269,0.1759644-1.6192017,0.2061768-2.6098633l0.0075073-0.1357422l0.7832031,0.0640869
		l-0.0025024,0.12323c-0.0100708,0.2237549,0.0477905,0.4160767,0.0792236,0.4575806
		c0.0314331,0.0264282,0.1407471,0.0917969,0.5606689,0.1269531l1.6644287,0.1395874
		C42.3780518,30.3593674,42.4672852,30.3694382,42.5440063,30.3694382z M40.9624634,14.9794855l-2.6047974,2.5607901
		c-0.2426147,0.2715454-0.3318481,0.4927979-0.2564087,0.6700439l0.0402222,0.1131592l-0.742981,0.3746338l-0.0465088-0.1307373
		c-0.3029785-0.7505493-0.5783081-1.4306641-0.9390869-2.1245728l-0.0578613-0.1081543l0.6688232-0.3984976l0.0640869,0.1257315
		c0.1119385,0.2023926,0.2577515,0.4400024,0.2966919,0.4827271l0.0942993-0.0314331l0.4098511-0.4613647l-0.5280151-1.012023
		l-0.5015869,0.059082l-0.0855103,0.0327148c-0.072876,0.0339355-0.0754395,0.072937-0.0779419,0.0905151
		c-0.0050049,0.0389404,0.0465088,0.1345215,0.0830078,0.2036743l0.0968018,0.1986084l-0.7078247,0.3809195l-0.059082-0.1131582
		c-0.3092651-0.5745239-0.5933228-1.020813-0.9755249-1.6104126l-0.0653687-0.0993042l0.6473999-0.4676514l0.0742188,0.109375
		c0.1571045,0.2263184,0.4764404,0.378418,0.8171387,0.378418c0.0377197,0,0.0817261-0.0050659,0.1181641-0.0062866
		l3.3641357-0.6097412L40.9624634,14.9794855z M37.947876,10.3217707l-0.5720215,0.5292358l-0.0842285-0.0854492
		c-0.1571655-0.1672363-0.3607788-0.2866821-0.4160767-0.2891846c-0.050293,0.0037842-0.1735229,0.0515747-0.4677124,0.3256226
		l-1.2156372,1.1351929c-0.3104858,0.291626-0.3532715,0.4123535-0.3532715,0.4462891
		c-0.0050049,0.0440063,0.0880127,0.21875,0.269043,0.4173584l0.0779419,0.0993042l-0.6311035,0.569519l-0.086731-0.1106567
		c-0.5305176-0.7102661-1.1037598-1.3765869-1.7009277-1.9724731l-0.0905151-0.09552l0.5984497-0.5770264l0.0892334,0.0930176
		c0.1885986,0.1873169,0.364563,0.2891846,0.4110718,0.291687c0.036499-0.0025024,0.1571655-0.0390015,0.4626465-0.3180542
		l1.2144165-1.1377563c0.3067017-0.2966919,0.3569946-0.4198608,0.3607788-0.4537964
		c0-0.0415039-0.1068726-0.2426147-0.2639771-0.4287109l-0.0842285-0.0968018l0.5593872-0.4990845l0.0905151,0.0842285
		c0.5531616,0.5632324,1.1540527,1.1930542,1.7587891,1.9737549L37.947876,10.3217707z"/>
	<polygon class="st0" points="39.3397827,14.6928644 38.0109863,14.8600397 38.4220581,15.6394587 	"/>
	<path class="st0" d="M39.3083496,40.3865891c-0.4701538-0.2614746-0.8410645-0.4287109-1.1942749-0.3997803
		c-0.3633423,0.0276489-0.5053711,0.036438-0.6763306,0.350769c-0.1697388,0.3067017-0.1207275,0.5040894,0.0477295,0.8183594
		c0.1722412,0.3218384,0.5343018,0.5632324,1.0183105,0.8272095c0.473938,0.2627563,0.8510742,0.4211426,1.2093506,0.3897095
		c0.3406982-0.0289307,0.5569458-0.0804443,0.7366943-0.3972778c0.1722412-0.3067017,0.1005859-0.4713745-0.0666504-0.7844238
		C40.2084351,40.8705978,39.789856,40.6442795,39.3083496,40.3865891z"/>
	<path class="st0" d="M20.7578125,44.6203537c-0.1634521,0-0.2702637-0.0200806-0.3243408-0.0465088
		c-0.0540771-0.0414429-0.0779419-0.1055908-0.0779419-0.1885376v-1.5865479h-0.1998901
		c-0.09552,0.0390015-0.196106,0.0679321-0.31427,0.0855103c-0.1169434,0.0201416-0.2489014,0.0264282-0.4047852,0.0339355
		v0.2263184c0.1709595,0.0050049,0.2815552,0.0200806,0.3217773,0.0477295
		c0.0465698,0.0302124,0.0666504,0.0993042,0.0666504,0.1898193v1.0032349c0,0.0829468-0.0251465,0.1470947-0.0792236,0.1885376
		c-0.0515137,0.0264282-0.1558838,0.0465088-0.3092041,0.0465088v0.2476807h1.321228V44.6203537z"/>
	<path class="st0" d="M21.994873,44.1611252c0.1080933,0,0.2036133-0.0125732,0.2878418-0.0402222
		c0.0917969-0.0288696,0.1785278-0.0703735,0.2740479-0.1294556v0.0163574c0,0.2023926-0.0515137,0.3582764-0.1420288,0.4726562
		c-0.09552,0.1118774-0.21875,0.1760254-0.3759155,0.1760254c-0.0703735,0-0.1218872-0.0075684-0.1483154-0.0289307
		c-0.0289307-0.0150757-0.050293-0.0490112-0.0628662-0.1055908c-0.0238647-0.0968018-0.0628662-0.1697388-0.1030884-0.2036743
		c-0.0289307-0.0301514-0.0905151-0.0490112-0.159668-0.0490112c-0.0703735,0-0.1294556,0.0213623-0.1784668,0.0615845
		c-0.0415039,0.036438-0.0679321,0.09552-0.0679321,0.168457c0,0.1068726,0.072937,0.2036743,0.2099609,0.2854004
		c0.1332397,0.0804443,0.2991943,0.1218872,0.5015869,0.1218872c0.350769,0,0.6122437-0.0993042,0.7970581-0.2941284
		c0.1848145-0.1873169,0.2727661-0.4714355,0.2727661-0.8209229c0-0.328125-0.0829468-0.5808105-0.241333-0.7605591
		c-0.1659546-0.1785278-0.3972778-0.2715454-0.6889038-0.2715454c-0.2904053,0-0.5192261,0.0741577-0.6901855,0.196106
		c-0.1798096,0.1383057-0.2577515,0.31427-0.2577515,0.53302c0,0.196106,0.0742188,0.3557739,0.2162476,0.4852295
		C21.5825195,44.0932541,21.7685547,44.1611252,21.994873,44.1611252z M21.8829346,43.1592331
		c0.0716553-0.0792236,0.1584473-0.1144409,0.2816162-0.1144409c0.1131592,0,0.2023926,0.0352173,0.2677612,0.1144409
		c0.0641479,0.0640869,0.0980835,0.1721802,0.0980835,0.3067017c0,0.1257324-0.0339355,0.2288208-0.0980835,0.2991943
		c-0.0691528,0.0691528-0.1571045,0.1106567-0.2752686,0.1106567c-0.1182251,0-0.2087402-0.0415039-0.277832-0.1131592
		c-0.0653687-0.0703735-0.0980835-0.1759644-0.0980835-0.3067627C21.7811279,43.3276901,21.8138428,43.22332,21.8829346,43.1592331z
		"/>
	<path class="st0" d="M24.2108154,43.81707c0,0-0.4727173,0.2526855-0.6713257,0.5255127
		c-0.1307373,0.196106-0.1307373,0.3582764-0.1307373,0.3582764c0.0327148,0.2727661,0.364563,0.1130981,0.364563,0.1130981
		c0.168457-0.1747437,0.3130493-0.0854492,0.3130493-0.0854492c0.3192749,0.1470947,0.5455933,0.2011108,0.5455933,0.2011108
		c0.6599731,0.0339355,0.6876831-0.5090942,0.6876831-0.5090942c0.0615845-0.2577515-0.0767212-0.3155518-0.1496582-0.3180542
		c-0.1055908-0.0113525-0.1596069,0.1193848-0.1596069,0.1193848c-0.059082,0.1772461-0.21875,0.2036743-0.21875,0.2036743
		c-0.2061768,0.0402222-0.6235352-0.1408081-0.6235352-0.1408081c0.0351562-0.0892334,0.1571045-0.1143799,0.1571045-0.1143799
		c0.4790039-0.0678711,0.6700439-0.2728271,0.6700439-0.2728271c0.1697388-0.1633911,0.2476807-0.328125,0.2476807-0.5028687
		c0-0.19104-0.0779419-0.3406372-0.2376099-0.4562988c-0.1533813-0.1131592-0.3733521-0.1710205-0.62854-0.1710205
		c-0.2476807,0-0.451355,0.0578613-0.6185303,0.1710205c-0.1571655,0.1206665-0.2401123,0.2601929-0.2401123,0.4248657
		c0,0.0905151,0.0213623,0.159668,0.0703735,0.2061768c0.0490723,0.0515747,0.1182251,0.0792236,0.2036743,0.0792236
		c0.0792236,0,0.1383057-0.0175781,0.1898193-0.0628662c0.0515747-0.0465088,0.0704346-0.09552,0.0704346-0.1608887
		c0-0.050293-0.0125732-0.0993042-0.0415039-0.1433105c-0.0251465-0.0540771-0.036438-0.0679321-0.036438-0.0779419
		c0-0.0440063,0.0238647-0.0905151,0.0905151-0.1257324c0.0540161-0.0427246,0.131958-0.0540771,0.2224731-0.0540771
		c0.1043701,0,0.1873169,0.0302124,0.2463989,0.0892944c0.0616455,0.0578003,0.0892944,0.1370239,0.0892944,0.2426147
		C24.6231689,43.3557053,24.6294556,43.6008224,24.2108154,43.81707z"/>
	<path class="st0" d="M27.1295166,44.6203537c-0.1646729,0-0.2765503-0.0200806-0.3268433-0.0465088
		c-0.0540771-0.0414429-0.0779419-0.1055908-0.0779419-0.1885376v-1.5865479h-0.1973877
		c-0.0905151,0.0390015-0.1986084,0.0679321-0.3167725,0.0855103c-0.1119385,0.0201416-0.2476807,0.0264282-0.3997803,0.0339355
		v0.2263184c0.1722412,0.0050049,0.2803345,0.0200806,0.3205566,0.0477295
		c0.0452271,0.0302124,0.0578003,0.0993042,0.0578003,0.1898193v1.0032349c0,0.0829468-0.0250854,0.1470947-0.0716553,0.1885376
		c-0.0515137,0.0264282-0.1546021,0.0465088-0.3067017,0.0465088v0.2476807h1.3187256V44.6203537z"/>
	<path class="st0" d="M22.7218628,26.2809372c-0.0339355-0.2652588-0.1332397-0.1181641-0.1332397-0.1181641
		c-0.3294067,0.7127686-0.4199219,1.9083252-0.4199219,1.9083252c-0.0968018,0.2929077,0.4186401,0.2137451,0.4186401,0.2137451
		c0.3293457-0.0842285,0.2036743-0.2589722,0.2036743-0.2589722C22.5006104,27.5456467,22.7218628,26.2809372,22.7218628,26.2809372
		z"/>
	<path class="st0" d="M23.5983276,17.6771774c0.0741577,0.0200806,0.1358032,0.0200806,0.1898193,0.0125732
		c0,0,0.0527954-0.0075684,0.0163574-0.0440063c-0.0880127-0.0892334-0.3532715-0.3092651-0.6901855-0.1747437
		c0,0-0.0415039,0.0100708-0.0854492,0.059082c-0.0176392,0.0415039-0.0339966,0.1307373,0.0716553,0.2111816
		c0,0,0.2350464,0.1395874,0.5493774,0.0830078c0,0,0.0779419-0.0113525,0.0276489-0.0515747L23.5983276,17.6771774z"/>
	<path class="st0" d="M23.0925903,18.5441208c-0.1257324-0.0251465-0.378418-0.0767212-0.4487915-0.0490723
		c0,0-0.0565796,0.0377197,0.0552979,0.1609497c0,0,0.0415039,0.3482056,0.4060669,0.0942993
		c0,0-0.0087891-0.0628662-0.1747437-0.1131592l0.1633911-0.0540771
		C23.093811,18.5830612,23.1390991,18.5679855,23.0925903,18.5441208z"/>
</g>
</svg>
